<svg xmlns="http://www.w3.org/2000/svg" xmlns:xlink="http://www.w3.org/1999/xlink" width="500" zoomAndPan="magnify" viewBox="0 0 375 374.999991" height="500" preserveAspectRatio="xMidYMid meet" version="1.0"><defs><g/><clipPath id="1853b06888"><path d="M 225 80.453125 L 251 80.453125 L 251 100 L 225 100 Z M 225 80.453125 " clip-rule="nonzero"/></clipPath><clipPath id="9533c7d630"><path d="M 133 118 L 256.707031 118 L 256.707031 201 L 133 201 Z M 133 118 " clip-rule="nonzero"/></clipPath><clipPath id="4b971c606e"><path d="M 118 152 L 207 152 L 207 216.953125 L 118 216.953125 Z M 118 152 " clip-rule="nonzero"/></clipPath></defs><rect x="-37.5" width="450" fill="#ffffff" y="-37.499999" height="449.999989" fill-opacity="1"/><rect x="-37.5" width="450" fill="#dcffcb" y="-37.499999" height="449.999989" fill-opacity="1"/><g clip-path="url(#1853b06888)"><path fill="#03421e" d="M 228.496094 87.953125 C 228.972656 88.25 229.449219 88.550781 229.925781 88.847656 C 234.421875 91.925781 239.105469 94.753906 243.734375 97.636719 C 244.808594 98.308594 245.992188 98.925781 247.113281 99.027344 C 247.121094 99.027344 247.132812 99.039062 247.140625 99.039062 C 247.152344 99.039062 247.160156 99.027344 247.160156 99.027344 C 248.234375 99.113281 249.230469 98.710938 250.023438 97.414062 C 251.574219 94.847656 249.652344 92.960938 247.476562 91.589844 C 247 91.292969 246.535156 90.984375 246.058594 90.6875 C 241.550781 87.617188 236.867188 84.777344 232.238281 81.894531 C 231.167969 81.234375 229.980469 80.617188 228.859375 80.515625 C 228.851562 80.503906 228.84375 80.503906 228.832031 80.496094 C 228.824219 80.503906 228.816406 80.503906 228.816406 80.515625 C 227.742188 80.429688 226.742188 80.832031 225.949219 82.128906 C 224.410156 84.6875 226.324219 86.578125 228.496094 87.953125 " fill-opacity="1" fill-rule="nonzero"/></g><path fill="#03421e" d="M 186.207031 144.796875 C 186.1875 144.835938 186.160156 144.863281 186.132812 144.910156 L 189.007812 144.910156 C 193.058594 144.917969 197.003906 144.929688 200.867188 144.929688 C 206.476562 144.742188 212.066406 144.332031 217.664062 143.640625 C 218.007812 143.238281 218.316406 142.800781 218.550781 142.417969 C 219.835938 140.273438 221.078125 138.089844 222.300781 135.914062 C 223.46875 133.816406 224.625 131.714844 225.800781 129.625 C 227.265625 127.011719 228.730469 124.398438 230.1875 121.796875 C 234.421875 114.246094 238.679688 106.660156 243 98.925781 C 237.632812 95.527344 232.511719 92.273438 226.910156 88.734375 C 219.679688 98.691406 212.523438 108.546875 205.316406 118.464844 C 201.121094 124.261719 196.910156 130.054688 192.644531 135.914062 C 190.519531 138.863281 188.363281 141.820312 186.207031 144.796875 " fill-opacity="1" fill-rule="nonzero"/><g clip-path="url(#9533c7d630)"><path fill="#03421e" d="M 256.816406 135.914062 L 256.816406 137.023438 L 251.648438 170.609375 C 251.640625 170.644531 251.628906 170.703125 251.621094 170.757812 C 248.1875 193.152344 225.539062 199.199219 205.410156 200.367188 C 205.652344 200.078125 205.925781 199.789062 206.175781 199.488281 C 206.886719 198.675781 207.585938 197.855469 208.277344 197.027344 C 208.332031 196.960938 208.40625 196.894531 208.464844 196.8125 C 209.144531 196.082031 210.394531 194.722656 210.601562 192.734375 C 210.628906 192.460938 210.636719 192.203125 210.636719 191.929688 L 208.546875 187.789062 C 207.847656 187.199219 206.96875 186.6875 205.925781 186.257812 C 205.792969 186.210938 205.671875 186.15625 205.570312 186.109375 C 201.007812 183.867188 195.59375 181.367188 189.976562 179.707031 C 189.089844 179.40625 188.082031 179.070312 186.917969 178.875 L 186.609375 178.800781 C 180.496094 177.148438 174.160156 175.441406 167.601562 175.300781 C 162.347656 175.085938 157.011719 176.261719 152.941406 178.511719 C 151.878906 179.0625 150.878906 179.726562 149.925781 180.480469 C 150.152344 179.546875 150.339844 178.585938 150.507812 177.617188 C 151.402344 172.53125 150.570312 167.667969 148.078125 163.171875 C 146.0625 159.558594 143.433594 156.125 140.027344 152.691406 C 139.570312 152.179688 139.101562 151.742188 138.710938 151.359375 C 138.355469 151.023438 138.03125 150.703125 137.757812 150.398438 L 137.386719 150.03125 C 136.703125 149.425781 135.929688 148.996094 135.117188 148.765625 C 134.054688 141.832031 133.167969 135.914062 133.167969 135.914062 L 133.289062 135.914062 C 133.671875 133.609375 134.996094 131.78125 137.117188 130.511719 C 140.34375 128.570312 143.730469 126.78125 147.25 125.480469 C 155.5625 122.414062 164.277344 120.957031 173.070312 120.125 C 180.394531 119.445312 187.757812 119.144531 195.109375 118.671875 C 197.042969 118.707031 198.980469 118.773438 200.90625 118.839844 C 199.898438 120.238281 198.878906 121.628906 197.871094 123.027344 C 196.949219 122.992188 196.015625 122.960938 195.089844 122.925781 C 186.917969 123.542969 178.714844 123.980469 170.570312 124.820312 C 163.355469 125.574219 156.199219 126.9375 149.480469 129.832031 C 147.324219 130.753906 145.234375 132.070312 143.441406 133.609375 C 142.628906 134.308594 142.144531 135.101562 141.988281 135.914062 C 141.714844 137.175781 142.21875 138.5 143.46875 139.589844 C 145.074219 141 146.960938 142.222656 148.910156 143.101562 C 155.320312 145.984375 162.199219 147.269531 169.121094 148.175781 C 188.449219 150.703125 207.753906 150.601562 226.976562 147.195312 C 232.707031 146.167969 238.359375 144.835938 243.511719 141.988281 C 245.703125 140.785156 248.09375 139.453125 248.019531 136.484375 C 248.019531 136.277344 248.007812 136.09375 247.972656 135.914062 C 247.644531 133.433594 245.507812 132.136719 243.457031 131.191406 C 240.28125 129.71875 236.988281 128.382812 233.621094 127.496094 C 232.808594 127.285156 231.988281 127.078125 231.167969 126.882812 C 231.929688 125.519531 232.707031 124.175781 233.460938 122.804688 C 234.832031 123.128906 236.195312 123.476562 237.558594 123.859375 C 242.140625 125.128906 246.527344 127.160156 250.890625 129.113281 C 252.460938 129.800781 253.914062 131.082031 255.027344 132.425781 C 255.808594 133.375 256.539062 134.683594 256.761719 135.914062 L 256.816406 135.914062 " fill-opacity="1" fill-rule="nonzero"/></g><g clip-path="url(#4b971c606e)"><path fill="#03421e" d="M 193.90625 205.507812 C 198.433594 201.933594 202.371094 197.613281 205.988281 193.105469 C 206.679688 192.265625 206.417969 191.285156 205.484375 190.753906 C 204.871094 190.402344 204.402344 190.128906 203.695312 189.925781 C 198.878906 187.5625 193.8125 185.269531 188.699219 183.765625 C 187.839844 183.476562 186.972656 183.1875 186.03125 183.046875 C 179.964844 181.414062 173.742188 179.6875 167.433594 179.558594 C 163.207031 179.390625 158.597656 180.238281 154.957031 182.261719 C 152.316406 183.636719 150.273438 185.753906 148.84375 188.226562 C 147.59375 190.390625 145.820312 193.488281 145.988281 196.054688 C 145.804688 196.363281 145.625 196.679688 145.382812 196.746094 C 143.011719 197.640625 140.613281 198.9375 137.957031 200.703125 C 137.535156 201.085938 137.105469 201.457031 136.601562 201.988281 C 136.507812 202.140625 136.265625 202.203125 136.089844 202.511719 C 136.117188 202.121094 136.21875 201.5625 136.246094 201.167969 C 136.359375 200.609375 136.40625 199.816406 136.519531 199.265625 C 136.566406 198.460938 136.546875 197.425781 136.996094 196.652344 C 137.285156 195.785156 138.28125 195.121094 138.730469 194.355469 C 142.703125 189.226562 145.207031 183.457031 146.316406 176.878906 C 147.035156 172.765625 146.382812 168.882812 144.355469 165.242188 C 142.332031 161.613281 139.792969 158.496094 136.917969 155.613281 C 136.171875 154.765625 135.332031 154.074219 134.578125 153.234375 C 133.894531 152.636719 133.101562 152.589844 132.65625 153.363281 C 130.117188 157.050781 127.511719 160.492188 124.984375 164.1875 C 122.445312 167.882812 120.214844 171.746094 119.070312 176.246094 C 118.15625 179.621094 118.03125 183.054688 119.84375 186.359375 C 121.496094 189.578125 123.894531 192.203125 126.65625 194.207031 C 128.800781 195.851562 131.125 197.183594 133.550781 197.96875 C 133.390625 199.320312 133.234375 200.664062 132.683594 202 C 132.300781 203.015625 131.917969 204.035156 131.542969 205.050781 C 130.070312 208.324219 128.429688 209.027344 126.644531 212.125 C 126.019531 213.207031 126.039062 214.242188 126.476562 214.914062 C 126.925781 215.578125 127.941406 215.957031 129.070312 215.78125 C 130.6875 215.472656 131.710938 214.417969 132.664062 213.113281 C 133.53125 211.964844 133.195312 212.1875 134.074219 211.042969 C 136.332031 207.8125 139.140625 205.097656 142.460938 202.886719 C 144.132812 201.785156 146.019531 201.019531 147.902344 200.246094 C 149.789062 199.480469 151.644531 199.105469 153.53125 198.339844 C 155.65625 197.5 158.25 196.941406 160.601562 196.4375 C 165.390625 195.28125 170 194.429688 174.917969 193.757812 C 179.59375 193.152344 184.425781 192.628906 189.230469 192.519531 C 182.335938 194.113281 174.644531 195.664062 166.929688 197.605469 C 159.949219 199.359375 147.089844 204.519531 144.710938 205.425781 C 144.476562 205.488281 144.542969 205.730469 144.691406 205.824219 C 145 206.003906 145.222656 206.328125 145.53125 206.507812 C 147.148438 207.644531 148.695312 208.539062 150.394531 209.519531 C 152.558594 210.761719 154.722656 212.011719 156.980469 213.105469 C 163.90625 216.460938 170.988281 217.042969 178.171875 214.585938 C 184.070312 212.21875 189.285156 209.242188 193.90625 205.507812 " fill-opacity="1" fill-rule="nonzero"/></g><g fill="#03421e" fill-opacity="1"><g transform="translate(100.300779, 269.995105)"><g><path d="M 5.96875 0.34375 C 4.851562 0.34375 3.984375 0.0351562 3.359375 -0.578125 C 2.742188 -1.203125 2.4375 -2.097656 2.4375 -3.265625 L 2.4375 -23.1875 C 2.4375 -25.59375 3.648438 -26.796875 6.078125 -26.796875 L 18.734375 -26.796875 C 20.554688 -26.796875 21.46875 -25.90625 21.46875 -24.125 C 21.46875 -22.300781 20.554688 -21.390625 18.734375 -21.390625 L 9.421875 -21.390625 L 9.421875 -16 L 17.890625 -16 C 19.722656 -16 20.640625 -15.113281 20.640625 -13.34375 C 20.640625 -11.539062 19.722656 -10.640625 17.890625 -10.640625 L 9.421875 -10.640625 L 9.421875 -3.265625 C 9.421875 -0.859375 8.269531 0.34375 5.96875 0.34375 Z M 5.96875 0.34375 "/></g></g></g><g fill="#03421e" fill-opacity="1"><g transform="translate(122.298279, 269.995105)"><g><path d="M 9.078125 0.421875 C 6.617188 0.421875 4.816406 -0.226562 3.671875 -1.53125 C 2.535156 -2.84375 1.96875 -4.816406 1.96875 -7.453125 L 1.96875 -23.71875 C 1.96875 -25.988281 3.082031 -27.125 5.3125 -27.125 C 6.40625 -27.125 7.25 -26.832031 7.84375 -26.25 C 8.4375 -25.675781 8.734375 -24.832031 8.734375 -23.71875 L 8.734375 -7.671875 C 8.734375 -6.734375 8.914062 -6.050781 9.28125 -5.625 C 9.65625 -5.195312 10.132812 -4.984375 10.71875 -4.984375 C 10.894531 -4.984375 11.078125 -5 11.265625 -5.03125 C 11.453125 -5.070312 11.660156 -5.101562 11.890625 -5.125 C 12.347656 -5.125 12.675781 -4.957031 12.875 -4.625 C 13.082031 -4.300781 13.1875 -3.632812 13.1875 -2.625 C 13.1875 -1.738281 13.007812 -1.070312 12.65625 -0.625 C 12.300781 -0.1875 11.753906 0.0976562 11.015625 0.234375 C 10.816406 0.273438 10.523438 0.316406 10.140625 0.359375 C 9.765625 0.398438 9.410156 0.421875 9.078125 0.421875 Z M 9.078125 0.421875 "/></g></g></g><g fill="#03421e" fill-opacity="1"><g transform="translate(135.519581, 269.995105)"><g><path d="M 11.4375 0.421875 C 9.363281 0.421875 7.550781 0.03125 6 -0.75 C 4.457031 -1.539062 3.253906 -2.671875 2.390625 -4.140625 C 1.535156 -5.609375 1.109375 -7.34375 1.109375 -9.34375 C 1.109375 -11.375 1.535156 -13.117188 2.390625 -14.578125 C 3.253906 -16.035156 4.457031 -17.15625 6 -17.9375 C 7.550781 -18.71875 9.363281 -19.109375 11.4375 -19.109375 C 13.507812 -19.109375 15.316406 -18.71875 16.859375 -17.9375 C 18.410156 -17.15625 19.609375 -16.035156 20.453125 -14.578125 C 21.304688 -13.117188 21.734375 -11.375 21.734375 -9.34375 C 21.734375 -7.34375 21.304688 -5.609375 20.453125 -4.140625 C 19.609375 -2.671875 18.410156 -1.539062 16.859375 -0.75 C 15.316406 0.03125 13.507812 0.421875 11.4375 0.421875 Z M 11.4375 -4.5625 C 12.445312 -4.5625 13.28125 -4.941406 13.9375 -5.703125 C 14.601562 -6.460938 14.9375 -7.675781 14.9375 -9.34375 C 14.9375 -11.039062 14.601562 -12.265625 13.9375 -13.015625 C 13.28125 -13.765625 12.445312 -14.140625 11.4375 -14.140625 C 10.394531 -14.140625 9.546875 -13.765625 8.890625 -13.015625 C 8.234375 -12.265625 7.90625 -11.039062 7.90625 -9.34375 C 7.90625 -7.675781 8.234375 -6.460938 8.890625 -5.703125 C 9.546875 -4.941406 10.394531 -4.5625 11.4375 -4.5625 Z M 11.4375 -4.5625 "/></g></g></g><g fill="#03421e" fill-opacity="1"><g transform="translate(158.390906, 269.995105)"><g><path d="M 5.4375 0.34375 C 3.125 0.34375 1.96875 -0.796875 1.96875 -3.078125 L 1.96875 -15.65625 C 1.96875 -17.90625 3.070312 -19.03125 5.28125 -19.03125 C 6.320312 -19.03125 7.125 -18.738281 7.6875 -18.15625 C 8.257812 -17.582031 8.546875 -16.75 8.546875 -15.65625 L 8.546875 -15.546875 C 8.984375 -16.628906 9.679688 -17.488281 10.640625 -18.125 C 11.597656 -18.757812 12.738281 -19.085938 14.0625 -19.109375 C 14.789062 -19.140625 15.335938 -18.957031 15.703125 -18.5625 C 16.078125 -18.164062 16.273438 -17.4375 16.296875 -16.375 C 16.296875 -15.46875 16.101562 -14.742188 15.71875 -14.203125 C 15.34375 -13.671875 14.625 -13.359375 13.5625 -13.265625 L 12.6875 -13.1875 C 11.34375 -13.0625 10.367188 -12.6875 9.765625 -12.0625 C 9.160156 -11.445312 8.859375 -10.53125 8.859375 -9.3125 L 8.859375 -3.078125 C 8.859375 -0.796875 7.71875 0.34375 5.4375 0.34375 Z M 5.4375 0.34375 "/></g></g></g><g fill="#03421e" fill-opacity="1"><g transform="translate(174.879541, 269.995105)"><g><path d="M 8.46875 0.421875 C 7.03125 0.421875 5.757812 0.15625 4.65625 -0.375 C 3.550781 -0.90625 2.6875 -1.632812 2.0625 -2.5625 C 1.445312 -3.488281 1.140625 -4.546875 1.140625 -5.734375 C 1.140625 -7.078125 1.492188 -8.144531 2.203125 -8.9375 C 2.910156 -9.738281 4.050781 -10.3125 5.625 -10.65625 C 7.195312 -11 9.285156 -11.171875 11.890625 -11.171875 L 13.34375 -11.171875 L 13.34375 -11.703125 C 13.34375 -12.617188 13.109375 -13.265625 12.640625 -13.640625 C 12.171875 -14.023438 11.363281 -14.21875 10.21875 -14.21875 C 9.582031 -14.21875 8.890625 -14.144531 8.140625 -14 C 7.398438 -13.863281 6.5625 -13.617188 5.625 -13.265625 C 4.789062 -12.960938 4.09375 -12.972656 3.53125 -13.296875 C 2.976562 -13.628906 2.617188 -14.101562 2.453125 -14.71875 C 2.285156 -15.34375 2.347656 -15.960938 2.640625 -16.578125 C 2.929688 -17.203125 3.492188 -17.664062 4.328125 -17.96875 C 5.546875 -18.40625 6.664062 -18.703125 7.6875 -18.859375 C 8.71875 -19.023438 9.664062 -19.109375 10.53125 -19.109375 C 13.644531 -19.109375 15.953125 -18.4375 17.453125 -17.09375 C 18.960938 -15.757812 19.71875 -13.644531 19.71875 -10.75 L 19.71875 -3.078125 C 19.71875 -0.796875 18.679688 0.34375 16.609375 0.34375 C 14.628906 0.34375 13.578125 -0.671875 13.453125 -2.703125 C 13.097656 -1.734375 12.488281 -0.96875 11.625 -0.40625 C 10.769531 0.144531 9.71875 0.421875 8.46875 0.421875 Z M 10 -3.984375 C 10.9375 -3.984375 11.726562 -4.285156 12.375 -4.890625 C 13.019531 -5.503906 13.34375 -6.304688 13.34375 -7.296875 L 13.34375 -7.984375 L 11.890625 -7.984375 C 10.398438 -7.984375 9.304688 -7.820312 8.609375 -7.5 C 7.910156 -7.1875 7.5625 -6.6875 7.5625 -6 C 7.5625 -5.414062 7.769531 -4.929688 8.1875 -4.546875 C 8.601562 -4.171875 9.207031 -3.984375 10 -3.984375 Z M 10 -3.984375 "/></g></g></g><g fill="#03421e" fill-opacity="1"><g transform="translate(196.459137, 269.995105)"><g><path d="M 5.65625 0.34375 C 4.644531 0.34375 3.867188 0.0664062 3.328125 -0.484375 C 2.785156 -1.046875 2.515625 -1.832031 2.515625 -2.84375 L 2.515625 -23.9375 C 2.515625 -24.976562 2.800781 -25.769531 3.375 -26.3125 C 3.957031 -26.851562 4.785156 -27.125 5.859375 -27.125 C 6.710938 -27.125 7.40625 -26.953125 7.9375 -26.609375 C 8.46875 -26.273438 8.953125 -25.710938 9.390625 -24.921875 L 16.875 -11.4375 L 24.359375 -24.921875 C 24.816406 -25.710938 25.300781 -26.273438 25.8125 -26.609375 C 26.332031 -26.953125 27.039062 -27.125 27.9375 -27.125 C 28.914062 -27.125 29.679688 -26.851562 30.234375 -26.3125 C 30.796875 -25.769531 31.078125 -24.976562 31.078125 -23.9375 L 31.078125 -2.84375 C 31.078125 -1.832031 30.8125 -1.046875 30.28125 -0.484375 C 29.75 0.0664062 28.96875 0.34375 27.9375 0.34375 C 26.914062 0.34375 26.132812 0.0664062 25.59375 -0.484375 C 25.050781 -1.046875 24.78125 -1.832031 24.78125 -2.84375 L 24.78125 -14.546875 L 19.453125 -5.28125 C 19.097656 -4.726562 18.722656 -4.3125 18.328125 -4.03125 C 17.941406 -3.75 17.421875 -3.609375 16.765625 -3.609375 C 16.128906 -3.609375 15.609375 -3.75 15.203125 -4.03125 C 14.796875 -4.3125 14.425781 -4.726562 14.09375 -5.28125 L 8.8125 -14.40625 L 8.8125 -2.84375 C 8.8125 -1.832031 8.546875 -1.046875 8.015625 -0.484375 C 7.484375 0.0664062 6.695312 0.34375 5.65625 0.34375 Z M 5.65625 0.34375 "/></g></g></g><g fill="#03421e" fill-opacity="1"><g transform="translate(230.044271, 269.995105)"><g><path d="M 12.15625 0.421875 C 9.875 0.421875 7.90625 0.0234375 6.25 -0.765625 C 4.59375 -1.566406 3.320312 -2.703125 2.4375 -4.171875 C 1.550781 -5.648438 1.109375 -7.390625 1.109375 -9.390625 C 1.109375 -11.285156 1.53125 -12.96875 2.375 -14.4375 C 3.21875 -15.90625 4.378906 -17.050781 5.859375 -17.875 C 7.347656 -18.695312 9.039062 -19.109375 10.9375 -19.109375 C 12.8125 -19.109375 14.4375 -18.71875 15.8125 -17.9375 C 17.195312 -17.15625 18.265625 -16.035156 19.015625 -14.578125 C 19.765625 -13.117188 20.140625 -11.414062 20.140625 -9.46875 C 20.140625 -8.476562 19.554688 -7.984375 18.390625 -7.984375 L 7.5625 -7.984375 C 7.789062 -6.765625 8.296875 -5.890625 9.078125 -5.359375 C 9.867188 -4.828125 10.957031 -4.5625 12.34375 -4.5625 C 12.875 -4.5625 13.507812 -4.625 14.25 -4.75 C 14.988281 -4.875 15.6875 -5.078125 16.34375 -5.359375 C 17.15625 -5.660156 17.835938 -5.664062 18.390625 -5.375 C 18.953125 -5.082031 19.328125 -4.640625 19.515625 -4.046875 C 19.703125 -3.453125 19.675781 -2.84375 19.4375 -2.21875 C 19.195312 -1.601562 18.722656 -1.128906 18.015625 -0.796875 C 17.128906 -0.367188 16.1875 -0.0625 15.1875 0.125 C 14.1875 0.320312 13.175781 0.421875 12.15625 0.421875 Z M 11.25 -14.75 C 10.238281 -14.75 9.410156 -14.441406 8.765625 -13.828125 C 8.117188 -13.222656 7.707031 -12.335938 7.53125 -11.171875 L 14.59375 -11.171875 C 14.519531 -12.359375 14.195312 -13.25 13.625 -13.84375 C 13.050781 -14.445312 12.257812 -14.75 11.25 -14.75 Z M 11.25 -14.75 "/></g></g></g><g fill="#03421e" fill-opacity="1"><g transform="translate(251.129963, 269.995105)"><g><path d="M 9.265625 0.421875 C 7.671875 0.421875 6.257812 0.03125 5.03125 -0.75 C 3.800781 -1.539062 2.835938 -2.671875 2.140625 -4.140625 C 1.453125 -5.609375 1.109375 -7.34375 1.109375 -9.34375 C 1.109375 -11.375 1.453125 -13.117188 2.140625 -14.578125 C 2.835938 -16.035156 3.800781 -17.15625 5.03125 -17.9375 C 6.257812 -18.71875 7.671875 -19.109375 9.265625 -19.109375 C 10.460938 -19.109375 11.5625 -18.859375 12.5625 -18.359375 C 13.5625 -17.867188 14.328125 -17.234375 14.859375 -16.453125 L 14.859375 -23.71875 C 14.859375 -25.988281 15.984375 -27.125 18.234375 -27.125 C 19.328125 -27.125 20.164062 -26.832031 20.75 -26.25 C 21.332031 -25.675781 21.625 -24.832031 21.625 -23.71875 L 21.625 -3.078125 C 21.625 -0.796875 20.507812 0.34375 18.28125 0.34375 C 16.28125 0.34375 15.175781 -0.609375 14.96875 -2.515625 C 14.46875 -1.617188 13.703125 -0.90625 12.671875 -0.375 C 11.648438 0.15625 10.515625 0.421875 9.265625 0.421875 Z M 11.4375 -4.5625 C 12.445312 -4.5625 13.28125 -4.941406 13.9375 -5.703125 C 14.601562 -6.460938 14.9375 -7.675781 14.9375 -9.34375 C 14.9375 -11.039062 14.601562 -12.265625 13.9375 -13.015625 C 13.28125 -13.765625 12.445312 -14.140625 11.4375 -14.140625 C 10.394531 -14.140625 9.546875 -13.765625 8.890625 -13.015625 C 8.234375 -12.265625 7.90625 -11.039062 7.90625 -9.34375 C 7.90625 -7.675781 8.234375 -6.460938 8.890625 -5.703125 C 9.546875 -4.941406 10.394531 -4.5625 11.4375 -4.5625 Z M 11.4375 -4.5625 "/></g></g></g><g fill="#000000" fill-opacity="1"><g transform="translate(135.949214, 291.245078)"><g><path d="M 3.640625 -4.140625 C 3.972656 -4.140625 4.265625 -4.179688 4.515625 -4.265625 C 4.765625 -4.359375 4.976562 -4.484375 5.15625 -4.640625 C 5.332031 -4.796875 5.460938 -4.984375 5.546875 -5.203125 C 5.640625 -5.421875 5.6875 -5.664062 5.6875 -5.9375 C 5.6875 -6.476562 5.515625 -6.90625 5.171875 -7.21875 C 4.835938 -7.53125 4.328125 -7.6875 3.640625 -7.6875 L 2.25 -7.6875 L 2.25 -4.140625 Z M 3.640625 -8.59375 C 4.179688 -8.59375 4.648438 -8.53125 5.046875 -8.40625 C 5.453125 -8.28125 5.785156 -8.101562 6.046875 -7.875 C 6.316406 -7.644531 6.515625 -7.363281 6.640625 -7.03125 C 6.773438 -6.707031 6.84375 -6.34375 6.84375 -5.9375 C 6.84375 -5.53125 6.769531 -5.160156 6.625 -4.828125 C 6.488281 -4.503906 6.285156 -4.222656 6.015625 -3.984375 C 5.742188 -3.742188 5.410156 -3.554688 5.015625 -3.421875 C 4.617188 -3.285156 4.160156 -3.21875 3.640625 -3.21875 L 2.25 -3.21875 L 2.25 0 L 1.09375 0 L 1.09375 -8.59375 Z M 3.640625 -8.59375 "/></g></g></g><g fill="#000000" fill-opacity="1"><g transform="translate(143.155124, 291.245078)"><g><path d="M 1.859375 -4.859375 C 2.046875 -5.273438 2.28125 -5.597656 2.5625 -5.828125 C 2.84375 -6.066406 3.1875 -6.1875 3.59375 -6.1875 C 3.71875 -6.1875 3.835938 -6.171875 3.953125 -6.140625 C 4.078125 -6.117188 4.1875 -6.078125 4.28125 -6.015625 L 4.203125 -5.21875 C 4.171875 -5.113281 4.109375 -5.0625 4.015625 -5.0625 C 3.960938 -5.0625 3.878906 -5.070312 3.765625 -5.09375 C 3.660156 -5.125 3.539062 -5.140625 3.40625 -5.140625 C 3.21875 -5.140625 3.046875 -5.109375 2.890625 -5.046875 C 2.742188 -4.992188 2.609375 -4.910156 2.484375 -4.796875 C 2.367188 -4.691406 2.265625 -4.554688 2.171875 -4.390625 C 2.078125 -4.234375 1.992188 -4.050781 1.921875 -3.84375 L 1.921875 0 L 0.84375 0 L 0.84375 -6.078125 L 1.453125 -6.078125 C 1.566406 -6.078125 1.644531 -6.054688 1.6875 -6.015625 C 1.738281 -5.972656 1.769531 -5.894531 1.78125 -5.78125 Z M 1.859375 -4.859375 "/></g></g></g><g fill="#000000" fill-opacity="1"><g transform="translate(147.52307, 291.245078)"><g><path d="M 3.40625 -6.171875 C 3.851562 -6.171875 4.253906 -6.097656 4.609375 -5.953125 C 4.960938 -5.804688 5.265625 -5.59375 5.515625 -5.3125 C 5.765625 -5.039062 5.957031 -4.710938 6.09375 -4.328125 C 6.226562 -3.941406 6.296875 -3.515625 6.296875 -3.046875 C 6.296875 -2.566406 6.226562 -2.132812 6.09375 -1.75 C 5.957031 -1.363281 5.765625 -1.035156 5.515625 -0.765625 C 5.265625 -0.492188 4.960938 -0.285156 4.609375 -0.140625 C 4.253906 0.00390625 3.851562 0.078125 3.40625 0.078125 C 2.957031 0.078125 2.550781 0.00390625 2.1875 -0.140625 C 1.832031 -0.285156 1.53125 -0.492188 1.28125 -0.765625 C 1.03125 -1.035156 0.835938 -1.363281 0.703125 -1.75 C 0.566406 -2.132812 0.5 -2.566406 0.5 -3.046875 C 0.5 -3.515625 0.566406 -3.941406 0.703125 -4.328125 C 0.835938 -4.710938 1.03125 -5.039062 1.28125 -5.3125 C 1.53125 -5.59375 1.832031 -5.804688 2.1875 -5.953125 C 2.550781 -6.097656 2.957031 -6.171875 3.40625 -6.171875 Z M 3.40625 -0.75 C 4.007812 -0.75 4.457031 -0.945312 4.75 -1.34375 C 5.050781 -1.75 5.203125 -2.3125 5.203125 -3.03125 C 5.203125 -3.757812 5.050781 -4.320312 4.75 -4.71875 C 4.457031 -5.125 4.007812 -5.328125 3.40625 -5.328125 C 3.101562 -5.328125 2.835938 -5.273438 2.609375 -5.171875 C 2.390625 -5.066406 2.203125 -4.914062 2.046875 -4.71875 C 1.898438 -4.53125 1.789062 -4.289062 1.71875 -4 C 1.644531 -3.71875 1.609375 -3.394531 1.609375 -3.03125 C 1.609375 -2.3125 1.753906 -1.75 2.046875 -1.34375 C 2.347656 -0.945312 2.800781 -0.75 3.40625 -0.75 Z M 3.40625 -0.75 "/></g></g></g><g fill="#000000" fill-opacity="1"><g transform="translate(154.326983, 291.245078)"><g><path d="M 6.046875 -6.078125 L 3.578125 0 L 2.609375 0 L 0.140625 -6.078125 L 1.015625 -6.078125 C 1.097656 -6.078125 1.164062 -6.054688 1.21875 -6.015625 C 1.28125 -5.972656 1.320312 -5.921875 1.34375 -5.859375 L 2.875 -1.9375 C 2.925781 -1.789062 2.96875 -1.644531 3 -1.5 C 3.039062 -1.363281 3.078125 -1.226562 3.109375 -1.09375 C 3.140625 -1.226562 3.171875 -1.363281 3.203125 -1.5 C 3.242188 -1.644531 3.289062 -1.789062 3.34375 -1.9375 L 4.90625 -5.859375 C 4.925781 -5.921875 4.960938 -5.972656 5.015625 -6.015625 C 5.078125 -6.054688 5.144531 -6.078125 5.21875 -6.078125 Z M 6.046875 -6.078125 "/></g></g></g><g fill="#000000" fill-opacity="1"><g transform="translate(160.5189, 291.245078)"><g><path d="M 1.96875 -6.078125 L 1.96875 0 L 0.90625 0 L 0.90625 -6.078125 Z M 2.203125 -7.984375 C 2.203125 -7.878906 2.179688 -7.78125 2.140625 -7.6875 C 2.097656 -7.601562 2.039062 -7.523438 1.96875 -7.453125 C 1.894531 -7.378906 1.8125 -7.320312 1.71875 -7.28125 C 1.625 -7.25 1.523438 -7.234375 1.421875 -7.234375 C 1.316406 -7.234375 1.21875 -7.25 1.125 -7.28125 C 1.039062 -7.320312 0.960938 -7.378906 0.890625 -7.453125 C 0.828125 -7.523438 0.773438 -7.601562 0.734375 -7.6875 C 0.691406 -7.78125 0.671875 -7.878906 0.671875 -7.984375 C 0.671875 -8.085938 0.691406 -8.1875 0.734375 -8.28125 C 0.773438 -8.375 0.828125 -8.457031 0.890625 -8.53125 C 0.960938 -8.601562 1.039062 -8.65625 1.125 -8.6875 C 1.21875 -8.726562 1.316406 -8.75 1.421875 -8.75 C 1.523438 -8.75 1.625 -8.726562 1.71875 -8.6875 C 1.8125 -8.65625 1.894531 -8.601562 1.96875 -8.53125 C 2.039062 -8.457031 2.097656 -8.375 2.140625 -8.28125 C 2.179688 -8.1875 2.203125 -8.085938 2.203125 -7.984375 Z M 2.203125 -7.984375 "/></g></g></g><g fill="#000000" fill-opacity="1"><g transform="translate(163.398862, 291.245078)"><g><path d="M 4.8125 -4.625 C 4.601562 -4.894531 4.382812 -5.082031 4.15625 -5.1875 C 3.925781 -5.300781 3.664062 -5.359375 3.375 -5.359375 C 2.8125 -5.359375 2.378906 -5.15625 2.078125 -4.75 C 1.773438 -4.34375 1.625 -3.765625 1.625 -3.015625 C 1.625 -2.617188 1.65625 -2.28125 1.71875 -2 C 1.789062 -1.71875 1.890625 -1.484375 2.015625 -1.296875 C 2.148438 -1.117188 2.3125 -0.988281 2.5 -0.90625 C 2.695312 -0.820312 2.914062 -0.78125 3.15625 -0.78125 C 3.507812 -0.78125 3.816406 -0.859375 4.078125 -1.015625 C 4.335938 -1.179688 4.582031 -1.410156 4.8125 -1.703125 Z M 5.875 -8.84375 L 5.875 0 L 5.234375 0 C 5.085938 0 4.992188 -0.0703125 4.953125 -0.21875 L 4.859375 -0.953125 C 4.597656 -0.640625 4.300781 -0.390625 3.96875 -0.203125 C 3.632812 -0.015625 3.25 0.078125 2.8125 0.078125 C 2.46875 0.078125 2.148438 0.015625 1.859375 -0.109375 C 1.578125 -0.242188 1.335938 -0.441406 1.140625 -0.703125 C 0.941406 -0.960938 0.785156 -1.285156 0.671875 -1.671875 C 0.566406 -2.066406 0.515625 -2.515625 0.515625 -3.015625 C 0.515625 -3.460938 0.570312 -3.878906 0.6875 -4.265625 C 0.8125 -4.648438 0.984375 -4.984375 1.203125 -5.265625 C 1.429688 -5.554688 1.707031 -5.78125 2.03125 -5.9375 C 2.363281 -6.101562 2.734375 -6.1875 3.140625 -6.1875 C 3.515625 -6.1875 3.832031 -6.125 4.09375 -6 C 4.363281 -5.875 4.601562 -5.695312 4.8125 -5.46875 L 4.8125 -8.84375 Z M 5.875 -8.84375 "/></g></g></g><g fill="#000000" fill-opacity="1"><g transform="translate(170.118775, 291.245078)"><g><path d="M 4.90625 -3.703125 C 4.90625 -3.953125 4.867188 -4.175781 4.796875 -4.375 C 4.734375 -4.582031 4.632812 -4.757812 4.5 -4.90625 C 4.363281 -5.0625 4.195312 -5.179688 4 -5.265625 C 3.8125 -5.347656 3.597656 -5.390625 3.359375 -5.390625 C 2.847656 -5.390625 2.441406 -5.238281 2.140625 -4.9375 C 1.847656 -4.644531 1.664062 -4.234375 1.59375 -3.703125 Z M 5.78125 -0.859375 C 5.644531 -0.691406 5.484375 -0.550781 5.296875 -0.4375 C 5.117188 -0.320312 4.921875 -0.222656 4.703125 -0.140625 C 4.492188 -0.0664062 4.273438 -0.015625 4.046875 0.015625 C 3.828125 0.0546875 3.609375 0.078125 3.390625 0.078125 C 2.972656 0.078125 2.585938 0.0078125 2.234375 -0.125 C 1.878906 -0.269531 1.570312 -0.476562 1.3125 -0.75 C 1.0625 -1.019531 0.863281 -1.359375 0.71875 -1.765625 C 0.570312 -2.171875 0.5 -2.632812 0.5 -3.15625 C 0.5 -3.582031 0.5625 -3.976562 0.6875 -4.34375 C 0.820312 -4.71875 1.007812 -5.039062 1.25 -5.3125 C 1.5 -5.582031 1.796875 -5.789062 2.140625 -5.9375 C 2.492188 -6.09375 2.894531 -6.171875 3.34375 -6.171875 C 3.695312 -6.171875 4.03125 -6.109375 4.34375 -5.984375 C 4.65625 -5.867188 4.921875 -5.695312 5.140625 -5.46875 C 5.367188 -5.238281 5.546875 -4.953125 5.671875 -4.609375 C 5.804688 -4.273438 5.875 -3.890625 5.875 -3.453125 C 5.875 -3.285156 5.851562 -3.171875 5.8125 -3.109375 C 5.78125 -3.054688 5.710938 -3.03125 5.609375 -3.03125 L 1.546875 -3.03125 C 1.566406 -2.644531 1.625 -2.3125 1.71875 -2.03125 C 1.8125 -1.75 1.941406 -1.507812 2.109375 -1.3125 C 2.273438 -1.125 2.472656 -0.984375 2.703125 -0.890625 C 2.929688 -0.796875 3.191406 -0.75 3.484375 -0.75 C 3.753906 -0.75 3.984375 -0.78125 4.171875 -0.84375 C 4.367188 -0.90625 4.535156 -0.972656 4.671875 -1.046875 C 4.816406 -1.117188 4.9375 -1.1875 5.03125 -1.25 C 5.125 -1.3125 5.207031 -1.34375 5.28125 -1.34375 C 5.363281 -1.34375 5.429688 -1.304688 5.484375 -1.234375 Z M 5.78125 -0.859375 "/></g></g></g><g fill="#000000" fill-opacity="1"><g transform="translate(176.454693, 291.245078)"><g><path d="M 4.8125 -4.625 C 4.601562 -4.894531 4.382812 -5.082031 4.15625 -5.1875 C 3.925781 -5.300781 3.664062 -5.359375 3.375 -5.359375 C 2.8125 -5.359375 2.378906 -5.15625 2.078125 -4.75 C 1.773438 -4.34375 1.625 -3.765625 1.625 -3.015625 C 1.625 -2.617188 1.65625 -2.28125 1.71875 -2 C 1.789062 -1.71875 1.890625 -1.484375 2.015625 -1.296875 C 2.148438 -1.117188 2.3125 -0.988281 2.5 -0.90625 C 2.695312 -0.820312 2.914062 -0.78125 3.15625 -0.78125 C 3.507812 -0.78125 3.816406 -0.859375 4.078125 -1.015625 C 4.335938 -1.179688 4.582031 -1.410156 4.8125 -1.703125 Z M 5.875 -8.84375 L 5.875 0 L 5.234375 0 C 5.085938 0 4.992188 -0.0703125 4.953125 -0.21875 L 4.859375 -0.953125 C 4.597656 -0.640625 4.300781 -0.390625 3.96875 -0.203125 C 3.632812 -0.015625 3.25 0.078125 2.8125 0.078125 C 2.46875 0.078125 2.148438 0.015625 1.859375 -0.109375 C 1.578125 -0.242188 1.335938 -0.441406 1.140625 -0.703125 C 0.941406 -0.960938 0.785156 -1.285156 0.671875 -1.671875 C 0.566406 -2.066406 0.515625 -2.515625 0.515625 -3.015625 C 0.515625 -3.460938 0.570312 -3.878906 0.6875 -4.265625 C 0.8125 -4.648438 0.984375 -4.984375 1.203125 -5.265625 C 1.429688 -5.554688 1.707031 -5.78125 2.03125 -5.9375 C 2.363281 -6.101562 2.734375 -6.1875 3.140625 -6.1875 C 3.515625 -6.1875 3.832031 -6.125 4.09375 -6 C 4.363281 -5.875 4.601562 -5.695312 4.8125 -5.46875 L 4.8125 -8.84375 Z M 5.875 -8.84375 "/></g></g></g><g fill="#000000" fill-opacity="1"><g transform="translate(183.174606, 291.245078)"><g/></g></g><g fill="#000000" fill-opacity="1"><g transform="translate(186.246567, 291.245078)"><g><path d="M 1.921875 -1.46875 C 2.117188 -1.195312 2.332031 -1.007812 2.5625 -0.90625 C 2.800781 -0.800781 3.0625 -0.75 3.34375 -0.75 C 3.90625 -0.75 4.335938 -0.945312 4.640625 -1.34375 C 4.953125 -1.75 5.109375 -2.351562 5.109375 -3.15625 C 5.109375 -3.894531 4.972656 -4.441406 4.703125 -4.796875 C 4.429688 -5.148438 4.046875 -5.328125 3.546875 -5.328125 C 3.203125 -5.328125 2.898438 -5.242188 2.640625 -5.078125 C 2.378906 -4.921875 2.140625 -4.695312 1.921875 -4.40625 Z M 1.921875 -5.203125 C 2.171875 -5.492188 2.457031 -5.726562 2.78125 -5.90625 C 3.101562 -6.082031 3.476562 -6.171875 3.90625 -6.171875 C 4.257812 -6.171875 4.578125 -6.101562 4.859375 -5.96875 C 5.148438 -5.832031 5.394531 -5.632812 5.59375 -5.375 C 5.789062 -5.113281 5.941406 -4.800781 6.046875 -4.4375 C 6.148438 -4.070312 6.203125 -3.660156 6.203125 -3.203125 C 6.203125 -2.703125 6.140625 -2.25 6.015625 -1.84375 C 5.898438 -1.445312 5.726562 -1.101562 5.5 -0.8125 C 5.28125 -0.53125 5.007812 -0.3125 4.6875 -0.15625 C 4.363281 0 4 0.078125 3.59375 0.078125 C 3.195312 0.078125 2.859375 0.00390625 2.578125 -0.140625 C 2.304688 -0.285156 2.066406 -0.5 1.859375 -0.78125 L 1.8125 -0.234375 C 1.78125 -0.078125 1.6875 0 1.53125 0 L 0.84375 0 L 0.84375 -8.84375 L 1.921875 -8.84375 Z M 1.921875 -5.203125 "/></g></g></g><g fill="#000000" fill-opacity="1"><g transform="translate(192.96648, 291.245078)"><g><path d="M 6.09375 -6.078125 L 2.703125 1.796875 C 2.660156 1.867188 2.613281 1.929688 2.5625 1.984375 C 2.507812 2.035156 2.425781 2.0625 2.3125 2.0625 L 1.53125 2.0625 L 2.640625 -0.359375 L 0.125 -6.078125 L 1.046875 -6.078125 C 1.140625 -6.078125 1.210938 -6.050781 1.265625 -6 C 1.316406 -5.957031 1.351562 -5.910156 1.375 -5.859375 L 3 -2.03125 C 3.070312 -1.863281 3.128906 -1.6875 3.171875 -1.5 C 3.222656 -1.6875 3.28125 -1.863281 3.34375 -2.03125 L 4.921875 -5.859375 C 4.953125 -5.921875 4.992188 -5.972656 5.046875 -6.015625 C 5.109375 -6.054688 5.175781 -6.078125 5.25 -6.078125 Z M 6.09375 -6.078125 "/></g></g></g><g fill="#000000" fill-opacity="1"><g transform="translate(199.1524, 291.245078)"><g/></g></g><g fill="#000000" fill-opacity="1"><g transform="translate(202.22436, 291.245078)"><g><path d="M 8.0625 -8.59375 L 8.0625 0 L 7.484375 0 C 7.390625 0 7.3125 -0.015625 7.25 -0.046875 C 7.1875 -0.078125 7.125 -0.128906 7.0625 -0.203125 L 2.09375 -6.6875 C 2.101562 -6.59375 2.109375 -6.492188 2.109375 -6.390625 C 2.117188 -6.296875 2.125 -6.207031 2.125 -6.125 L 2.125 0 L 1.09375 0 L 1.09375 -8.59375 L 1.703125 -8.59375 C 1.753906 -8.59375 1.796875 -8.585938 1.828125 -8.578125 C 1.867188 -8.578125 1.898438 -8.566406 1.921875 -8.546875 C 1.953125 -8.535156 1.976562 -8.515625 2 -8.484375 C 2.03125 -8.460938 2.0625 -8.4375 2.09375 -8.40625 L 7.078125 -1.921875 C 7.066406 -2.023438 7.054688 -2.125 7.046875 -2.21875 C 7.046875 -2.320312 7.046875 -2.421875 7.046875 -2.515625 L 7.046875 -8.59375 Z M 8.0625 -8.59375 "/></g></g></g><g fill="#000000" fill-opacity="1"><g transform="translate(211.386236, 291.245078)"><g><path d="M 4.140625 -2.734375 C 3.648438 -2.722656 3.226562 -2.6875 2.875 -2.625 C 2.53125 -2.5625 2.25 -2.476562 2.03125 -2.375 C 1.8125 -2.269531 1.65625 -2.148438 1.5625 -2.015625 C 1.46875 -1.878906 1.421875 -1.726562 1.421875 -1.5625 C 1.421875 -1.40625 1.445312 -1.269531 1.5 -1.15625 C 1.550781 -1.039062 1.617188 -0.941406 1.703125 -0.859375 C 1.796875 -0.785156 1.898438 -0.734375 2.015625 -0.703125 C 2.140625 -0.671875 2.273438 -0.65625 2.421875 -0.65625 C 2.609375 -0.65625 2.78125 -0.671875 2.9375 -0.703125 C 3.09375 -0.742188 3.238281 -0.800781 3.375 -0.875 C 3.507812 -0.945312 3.640625 -1.03125 3.765625 -1.125 C 3.890625 -1.226562 4.015625 -1.34375 4.140625 -1.46875 Z M 0.6875 -5.21875 C 1.019531 -5.539062 1.378906 -5.78125 1.765625 -5.9375 C 2.160156 -6.101562 2.59375 -6.1875 3.0625 -6.1875 C 3.40625 -6.1875 3.707031 -6.128906 3.96875 -6.015625 C 4.238281 -5.898438 4.460938 -5.742188 4.640625 -5.546875 C 4.816406 -5.347656 4.953125 -5.101562 5.046875 -4.8125 C 5.140625 -4.53125 5.1875 -4.222656 5.1875 -3.890625 L 5.1875 0 L 4.703125 0 C 4.597656 0 4.519531 -0.015625 4.46875 -0.046875 C 4.414062 -0.0859375 4.375 -0.15625 4.34375 -0.25 L 4.21875 -0.828125 C 4.0625 -0.679688 3.90625 -0.550781 3.75 -0.4375 C 3.59375 -0.320312 3.429688 -0.222656 3.265625 -0.140625 C 3.097656 -0.0664062 2.921875 -0.0078125 2.734375 0.03125 C 2.546875 0.0703125 2.332031 0.09375 2.09375 0.09375 C 1.863281 0.09375 1.644531 0.0625 1.4375 0 C 1.226562 -0.0703125 1.046875 -0.171875 0.890625 -0.296875 C 0.734375 -0.429688 0.609375 -0.597656 0.515625 -0.796875 C 0.429688 -1.003906 0.390625 -1.242188 0.390625 -1.515625 C 0.390625 -1.753906 0.453125 -1.984375 0.578125 -2.203125 C 0.710938 -2.429688 0.925781 -2.628906 1.21875 -2.796875 C 1.519531 -2.972656 1.910156 -3.113281 2.390625 -3.21875 C 2.867188 -3.332031 3.453125 -3.394531 4.140625 -3.40625 L 4.140625 -3.890625 C 4.140625 -4.359375 4.035156 -4.710938 3.828125 -4.953125 C 3.628906 -5.203125 3.332031 -5.328125 2.9375 -5.328125 C 2.675781 -5.328125 2.457031 -5.289062 2.28125 -5.21875 C 2.101562 -5.15625 1.945312 -5.082031 1.8125 -5 C 1.6875 -4.914062 1.578125 -4.84375 1.484375 -4.78125 C 1.390625 -4.71875 1.296875 -4.6875 1.203125 -4.6875 C 1.128906 -4.6875 1.066406 -4.703125 1.015625 -4.734375 C 0.960938 -4.773438 0.914062 -4.820312 0.875 -4.875 Z M 0.6875 -5.21875 "/></g></g></g><g fill="#000000" fill-opacity="1"><g transform="translate(217.350164, 291.245078)"><g><path d="M 2.71875 0.09375 C 2.226562 0.09375 1.851562 -0.0351562 1.59375 -0.296875 C 1.34375 -0.566406 1.21875 -0.957031 1.21875 -1.46875 L 1.21875 -5.1875 L 0.484375 -5.1875 C 0.421875 -5.1875 0.367188 -5.203125 0.328125 -5.234375 C 0.285156 -5.273438 0.265625 -5.335938 0.265625 -5.421875 L 0.265625 -5.84375 L 1.25 -5.96875 L 1.5 -7.84375 C 1.507812 -7.90625 1.535156 -7.953125 1.578125 -7.984375 C 1.617188 -8.023438 1.675781 -8.046875 1.75 -8.046875 L 2.28125 -8.046875 L 2.28125 -5.953125 L 4.046875 -5.953125 L 4.046875 -5.1875 L 2.28125 -5.1875 L 2.28125 -1.53125 C 2.28125 -1.28125 2.34375 -1.09375 2.46875 -0.96875 C 2.59375 -0.84375 2.753906 -0.78125 2.953125 -0.78125 C 3.066406 -0.78125 3.160156 -0.796875 3.234375 -0.828125 C 3.316406 -0.859375 3.390625 -0.890625 3.453125 -0.921875 C 3.515625 -0.960938 3.566406 -0.992188 3.609375 -1.015625 C 3.648438 -1.046875 3.6875 -1.0625 3.71875 -1.0625 C 3.769531 -1.0625 3.820312 -1.03125 3.875 -0.96875 L 4.1875 -0.453125 C 4 -0.285156 3.773438 -0.148438 3.515625 -0.046875 C 3.253906 0.046875 2.988281 0.09375 2.71875 0.09375 Z M 2.71875 0.09375 "/></g></g></g><g fill="#000000" fill-opacity="1"><g transform="translate(221.652112, 291.245078)"><g><path d="M 5.84375 -6.078125 L 5.84375 0 L 5.203125 0 C 5.054688 0 4.960938 -0.0703125 4.921875 -0.21875 L 4.84375 -0.875 C 4.570312 -0.582031 4.269531 -0.347656 3.9375 -0.171875 C 3.613281 0.00390625 3.238281 0.09375 2.8125 0.09375 C 2.488281 0.09375 2.195312 0.0390625 1.9375 -0.0625 C 1.6875 -0.175781 1.472656 -0.332031 1.296875 -0.53125 C 1.128906 -0.726562 1 -0.96875 0.90625 -1.25 C 0.820312 -1.539062 0.78125 -1.859375 0.78125 -2.203125 L 0.78125 -6.078125 L 1.859375 -6.078125 L 1.859375 -2.203125 C 1.859375 -1.742188 1.960938 -1.382812 2.171875 -1.125 C 2.378906 -0.875 2.695312 -0.75 3.125 -0.75 C 3.445312 -0.75 3.742188 -0.820312 4.015625 -0.96875 C 4.285156 -1.125 4.539062 -1.335938 4.78125 -1.609375 L 4.78125 -6.078125 Z M 5.84375 -6.078125 "/></g></g></g><g fill="#000000" fill-opacity="1"><g transform="translate(228.342031, 291.245078)"><g><path d="M 1.859375 -4.859375 C 2.046875 -5.273438 2.28125 -5.597656 2.5625 -5.828125 C 2.84375 -6.066406 3.1875 -6.1875 3.59375 -6.1875 C 3.71875 -6.1875 3.835938 -6.171875 3.953125 -6.140625 C 4.078125 -6.117188 4.1875 -6.078125 4.28125 -6.015625 L 4.203125 -5.21875 C 4.171875 -5.113281 4.109375 -5.0625 4.015625 -5.0625 C 3.960938 -5.0625 3.878906 -5.070312 3.765625 -5.09375 C 3.660156 -5.125 3.539062 -5.140625 3.40625 -5.140625 C 3.21875 -5.140625 3.046875 -5.109375 2.890625 -5.046875 C 2.742188 -4.992188 2.609375 -4.910156 2.484375 -4.796875 C 2.367188 -4.691406 2.265625 -4.554688 2.171875 -4.390625 C 2.078125 -4.234375 1.992188 -4.050781 1.921875 -3.84375 L 1.921875 0 L 0.84375 0 L 0.84375 -6.078125 L 1.453125 -6.078125 C 1.566406 -6.078125 1.644531 -6.054688 1.6875 -6.015625 C 1.738281 -5.972656 1.769531 -5.894531 1.78125 -5.78125 Z M 1.859375 -4.859375 "/></g></g></g><g fill="#000000" fill-opacity="1"><g transform="translate(232.709977, 291.245078)"><g><path d="M 4.90625 -3.703125 C 4.90625 -3.953125 4.867188 -4.175781 4.796875 -4.375 C 4.734375 -4.582031 4.632812 -4.757812 4.5 -4.90625 C 4.363281 -5.0625 4.195312 -5.179688 4 -5.265625 C 3.8125 -5.347656 3.597656 -5.390625 3.359375 -5.390625 C 2.847656 -5.390625 2.441406 -5.238281 2.140625 -4.9375 C 1.847656 -4.644531 1.664062 -4.234375 1.59375 -3.703125 Z M 5.78125 -0.859375 C 5.644531 -0.691406 5.484375 -0.550781 5.296875 -0.4375 C 5.117188 -0.320312 4.921875 -0.222656 4.703125 -0.140625 C 4.492188 -0.0664062 4.273438 -0.015625 4.046875 0.015625 C 3.828125 0.0546875 3.609375 0.078125 3.390625 0.078125 C 2.972656 0.078125 2.585938 0.0078125 2.234375 -0.125 C 1.878906 -0.269531 1.570312 -0.476562 1.3125 -0.75 C 1.0625 -1.019531 0.863281 -1.359375 0.71875 -1.765625 C 0.570312 -2.171875 0.5 -2.632812 0.5 -3.15625 C 0.5 -3.582031 0.5625 -3.976562 0.6875 -4.34375 C 0.820312 -4.71875 1.007812 -5.039062 1.25 -5.3125 C 1.5 -5.582031 1.796875 -5.789062 2.140625 -5.9375 C 2.492188 -6.09375 2.894531 -6.171875 3.34375 -6.171875 C 3.695312 -6.171875 4.03125 -6.109375 4.34375 -5.984375 C 4.65625 -5.867188 4.921875 -5.695312 5.140625 -5.46875 C 5.367188 -5.238281 5.546875 -4.953125 5.671875 -4.609375 C 5.804688 -4.273438 5.875 -3.890625 5.875 -3.453125 C 5.875 -3.285156 5.851562 -3.171875 5.8125 -3.109375 C 5.78125 -3.054688 5.710938 -3.03125 5.609375 -3.03125 L 1.546875 -3.03125 C 1.566406 -2.644531 1.625 -2.3125 1.71875 -2.03125 C 1.8125 -1.75 1.941406 -1.507812 2.109375 -1.3125 C 2.273438 -1.125 2.472656 -0.984375 2.703125 -0.890625 C 2.929688 -0.796875 3.191406 -0.75 3.484375 -0.75 C 3.753906 -0.75 3.984375 -0.78125 4.171875 -0.84375 C 4.367188 -0.90625 4.535156 -0.972656 4.671875 -1.046875 C 4.816406 -1.117188 4.9375 -1.1875 5.03125 -1.25 C 5.125 -1.3125 5.207031 -1.34375 5.28125 -1.34375 C 5.363281 -1.34375 5.429688 -1.304688 5.484375 -1.234375 Z M 5.78125 -0.859375 "/></g></g></g></svg>