<svg xmlns="http://www.w3.org/2000/svg" xmlns:xlink="http://www.w3.org/1999/xlink" width="500" zoomAndPan="magnify" viewBox="0 0 375 374.999991" height="500" preserveAspectRatio="xMidYMid meet" version="1.0"><defs><g/><clipPath id="6fde461426"><path d="M 109 100.105469 L 134 100.105469 L 134 118 L 109 118 Z M 109 100.105469 " clip-rule="nonzero"/></clipPath><clipPath id="0c4ce059f9"><path d="M 24 135 L 138.878906 135 L 138.878906 212 L 24 212 Z M 24 135 " clip-rule="nonzero"/></clipPath><clipPath id="270ca289e2"><path d="M 10 167 L 92 167 L 92 226.855469 L 10 226.855469 Z M 10 167 " clip-rule="nonzero"/></clipPath></defs><g clip-path="url(#6fde461426)"><path fill="#03421e" d="M 112.539062 107.066406 C 112.980469 107.34375 113.421875 107.621094 113.867188 107.898438 C 118.042969 110.761719 122.394531 113.386719 126.691406 116.0625 C 127.6875 116.6875 128.789062 117.257812 129.828125 117.355469 C 129.835938 117.355469 129.847656 117.363281 129.855469 117.363281 C 129.863281 117.363281 129.871094 117.355469 129.871094 117.355469 C 130.867188 117.433594 131.796875 117.058594 132.53125 115.855469 C 133.972656 113.472656 132.1875 111.722656 130.167969 110.449219 C 129.726562 110.171875 129.292969 109.882812 128.851562 109.605469 C 124.664062 106.757812 120.3125 104.121094 116.015625 101.445312 C 115.019531 100.828125 113.917969 100.257812 112.878906 100.160156 C 112.867188 100.152344 112.859375 100.152344 112.851562 100.144531 C 112.84375 100.152344 112.835938 100.152344 112.835938 100.160156 C 111.835938 100.082031 110.910156 100.457031 110.171875 101.660156 C 108.742188 104.035156 110.519531 105.792969 112.539062 107.066406 " fill-opacity="1" fill-rule="nonzero"/></g><path fill="#03421e" d="M 73.265625 159.863281 C 73.246094 159.898438 73.222656 159.921875 73.195312 159.96875 L 75.863281 159.96875 C 79.625 159.976562 83.289062 159.984375 86.878906 159.984375 C 92.085938 159.8125 97.277344 159.429688 102.476562 158.789062 C 102.796875 158.414062 103.085938 158.007812 103.300781 157.652344 C 104.496094 155.660156 105.648438 153.632812 106.785156 151.613281 C 107.867188 149.664062 108.941406 147.714844 110.035156 145.773438 C 111.394531 143.34375 112.757812 140.917969 114.109375 138.5 C 118.042969 131.488281 121.996094 124.445312 126.007812 117.257812 C 121.023438 114.105469 116.265625 111.082031 111.066406 107.796875 C 104.351562 117.042969 97.703125 126.195312 91.011719 135.40625 C 87.113281 140.789062 83.203125 146.171875 79.242188 151.613281 C 77.269531 154.351562 75.265625 157.097656 73.265625 159.863281 " fill-opacity="1" fill-rule="nonzero"/><g clip-path="url(#0c4ce059f9)"><path fill="#03421e" d="M 138.84375 151.613281 L 138.84375 152.644531 L 134.039062 183.835938 C 134.03125 183.867188 134.023438 183.921875 134.015625 183.972656 C 130.824219 204.773438 109.792969 210.386719 91.097656 211.472656 C 91.324219 211.203125 91.574219 210.933594 91.808594 210.65625 C 92.46875 209.902344 93.117188 209.140625 93.761719 208.367188 C 93.8125 208.308594 93.882812 208.246094 93.933594 208.167969 C 94.566406 207.492188 95.726562 206.226562 95.917969 204.382812 C 95.945312 204.128906 95.953125 203.886719 95.953125 203.636719 L 94.011719 199.789062 C 93.359375 199.242188 92.546875 198.765625 91.574219 198.367188 C 91.453125 198.324219 91.34375 198.273438 91.246094 198.230469 C 87.007812 196.148438 81.980469 193.828125 76.765625 192.285156 C 75.941406 192.007812 75.007812 191.695312 73.921875 191.511719 L 73.636719 191.441406 C 67.960938 189.910156 62.074219 188.324219 55.984375 188.191406 C 51.105469 187.992188 46.148438 189.085938 42.367188 191.175781 C 41.378906 191.6875 40.453125 192.300781 39.570312 193.003906 C 39.777344 192.136719 39.949219 191.242188 40.105469 190.34375 C 40.9375 185.621094 40.167969 181.105469 37.855469 176.925781 C 35.980469 173.574219 33.539062 170.382812 30.375 167.195312 C 29.949219 166.71875 29.515625 166.3125 29.152344 165.957031 C 28.824219 165.644531 28.519531 165.347656 28.269531 165.0625 L 27.921875 164.726562 C 27.289062 164.160156 26.570312 163.761719 25.816406 163.546875 C 24.828125 157.105469 24.003906 151.613281 24.003906 151.613281 L 24.117188 151.613281 C 24.472656 149.472656 25.703125 147.773438 27.671875 146.59375 C 30.667969 144.792969 33.816406 143.128906 37.082031 141.925781 C 44.804688 139.074219 52.898438 137.722656 61.0625 136.949219 C 67.863281 136.316406 74.703125 136.039062 81.53125 135.597656 C 83.324219 135.632812 85.128906 135.691406 86.914062 135.753906 C 85.976562 137.054688 85.03125 138.34375 84.097656 139.644531 C 83.238281 139.609375 82.371094 139.582031 81.515625 139.550781 C 73.921875 140.121094 66.304688 140.527344 58.738281 141.308594 C 52.039062 142.011719 45.394531 143.277344 39.152344 145.960938 C 37.152344 146.820312 35.210938 148.042969 33.546875 149.472656 C 32.792969 150.121094 32.339844 150.859375 32.195312 151.613281 C 31.941406 152.78125 32.410156 154.011719 33.574219 155.027344 C 35.0625 156.335938 36.8125 157.472656 38.625 158.285156 C 44.578125 160.964844 50.964844 162.160156 57.394531 163 C 75.34375 165.347656 93.273438 165.253906 111.128906 162.089844 C 116.449219 161.136719 121.699219 159.898438 126.484375 157.253906 C 128.519531 156.136719 130.738281 154.898438 130.667969 152.140625 C 130.667969 151.949219 130.660156 151.777344 130.625 151.613281 C 130.324219 149.308594 128.339844 148.101562 126.433594 147.226562 C 123.484375 145.859375 120.425781 144.617188 117.296875 143.796875 C 116.542969 143.597656 115.78125 143.40625 115.019531 143.222656 C 115.730469 141.957031 116.449219 140.710938 117.148438 139.4375 C 118.425781 139.738281 119.6875 140.0625 120.953125 140.414062 C 125.210938 141.59375 129.28125 143.484375 133.339844 145.296875 C 134.792969 145.9375 136.148438 147.125 137.179688 148.371094 C 137.90625 149.253906 138.582031 150.46875 138.789062 151.613281 L 138.84375 151.613281 " fill-opacity="1" fill-rule="nonzero"/></g><g clip-path="url(#270ca289e2)"><path fill="#03421e" d="M 80.414062 216.246094 C 84.617188 212.925781 88.273438 208.914062 91.636719 204.730469 C 92.277344 203.949219 92.035156 203.039062 91.167969 202.542969 C 90.597656 202.214844 90.164062 201.964844 89.503906 201.773438 C 85.03125 199.582031 80.328125 197.449219 75.578125 196.054688 C 74.78125 195.785156 73.976562 195.515625 73.097656 195.386719 C 67.464844 193.871094 61.6875 192.265625 55.828125 192.144531 C 51.902344 191.988281 47.621094 192.777344 44.242188 194.660156 C 41.789062 195.933594 39.890625 197.898438 38.5625 200.195312 C 37.402344 202.207031 35.757812 205.082031 35.914062 207.46875 C 35.738281 207.753906 35.574219 208.046875 35.347656 208.109375 C 33.148438 208.941406 30.921875 210.144531 28.449219 211.78125 C 28.0625 212.136719 27.660156 212.484375 27.195312 212.980469 C 27.105469 213.117188 26.882812 213.179688 26.71875 213.464844 C 26.742188 213.101562 26.839844 212.582031 26.863281 212.214844 C 26.96875 211.695312 27.011719 210.960938 27.117188 210.449219 C 27.160156 209.703125 27.140625 208.742188 27.558594 208.023438 C 27.828125 207.214844 28.753906 206.601562 29.167969 205.890625 C 32.863281 201.125 35.183594 195.769531 36.214844 189.65625 C 36.882812 185.835938 36.277344 182.230469 34.394531 178.851562 C 32.515625 175.480469 30.15625 172.585938 27.488281 169.90625 C 26.796875 169.117188 26.015625 168.476562 25.3125 167.699219 C 24.679688 167.144531 23.945312 167.097656 23.527344 167.820312 C 21.171875 171.242188 18.753906 174.441406 16.40625 177.871094 C 14.046875 181.304688 11.976562 184.890625 10.910156 189.070312 C 10.0625 192.207031 9.949219 195.394531 11.628906 198.460938 C 13.164062 201.453125 15.390625 203.886719 17.957031 205.75 C 19.949219 207.277344 22.105469 208.515625 24.359375 209.242188 C 24.210938 210.5 24.066406 211.75 23.554688 212.988281 C 23.199219 213.933594 22.84375 214.875 22.496094 215.820312 C 21.128906 218.863281 19.601562 219.511719 17.945312 222.390625 C 17.367188 223.394531 17.382812 224.359375 17.792969 224.980469 C 18.207031 225.597656 19.152344 225.953125 20.199219 225.789062 C 21.699219 225.5 22.652344 224.523438 23.535156 223.308594 C 24.34375 222.242188 24.03125 222.449219 24.84375 221.386719 C 26.941406 218.386719 29.550781 215.863281 32.636719 213.8125 C 34.1875 212.789062 35.9375 212.078125 37.6875 211.359375 C 39.441406 210.648438 41.164062 210.300781 42.914062 209.589844 C 44.890625 208.808594 47.300781 208.289062 49.484375 207.824219 C 53.929688 206.746094 58.210938 205.960938 62.777344 205.335938 C 67.121094 204.773438 71.609375 204.285156 76.070312 204.183594 C 69.667969 205.664062 62.527344 207.101562 55.359375 208.90625 C 48.878906 210.535156 36.933594 215.328125 34.726562 216.167969 C 34.507812 216.230469 34.570312 216.453125 34.707031 216.539062 C 34.992188 216.707031 35.203125 217.007812 35.488281 217.171875 C 36.988281 218.230469 38.425781 219.0625 40.003906 219.972656 C 42.011719 221.125 44.023438 222.285156 46.121094 223.300781 C 52.550781 226.421875 59.128906 226.957031 65.800781 224.679688 C 71.28125 222.476562 76.125 219.710938 80.414062 216.246094 " fill-opacity="1" fill-rule="nonzero"/></g><g fill="#03421e" fill-opacity="1"><g transform="translate(145.654389, 182.475091)"><g><path d="M 7.0625 0.40625 C 5.738281 0.40625 4.707031 0.0390625 3.96875 -0.6875 C 3.238281 -1.425781 2.875 -2.488281 2.875 -3.875 L 2.875 -27.453125 C 2.875 -30.296875 4.316406 -31.71875 7.203125 -31.71875 L 22.1875 -31.71875 C 24.34375 -31.71875 25.421875 -30.671875 25.421875 -28.578125 C 25.421875 -26.410156 24.34375 -25.328125 22.1875 -25.328125 L 11.15625 -25.328125 L 11.15625 -18.9375 L 21.1875 -18.9375 C 23.351562 -18.9375 24.4375 -17.890625 24.4375 -15.796875 C 24.4375 -13.660156 23.351562 -12.59375 21.1875 -12.59375 L 11.15625 -12.59375 L 11.15625 -3.875 C 11.15625 -1.019531 9.789062 0.40625 7.0625 0.40625 Z M 7.0625 0.40625 "/></g></g></g><g fill="#03421e" fill-opacity="1"><g transform="translate(171.702629, 182.475091)"><g><path d="M 10.75 0.5 C 7.84375 0.5 5.710938 -0.269531 4.359375 -1.8125 C 3.015625 -3.363281 2.34375 -5.695312 2.34375 -8.8125 L 2.34375 -28.078125 C 2.34375 -30.773438 3.660156 -32.125 6.296875 -32.125 C 7.585938 -32.125 8.582031 -31.78125 9.28125 -31.09375 C 9.988281 -30.40625 10.34375 -29.398438 10.34375 -28.078125 L 10.34375 -9.09375 C 10.34375 -7.976562 10.5625 -7.164062 11 -6.65625 C 11.4375 -6.144531 12 -5.890625 12.6875 -5.890625 C 12.894531 -5.890625 13.113281 -5.910156 13.34375 -5.953125 C 13.570312 -6.003906 13.816406 -6.046875 14.078125 -6.078125 C 14.617188 -6.078125 15.007812 -5.878906 15.25 -5.484375 C 15.488281 -5.097656 15.609375 -4.304688 15.609375 -3.109375 C 15.609375 -2.054688 15.398438 -1.265625 14.984375 -0.734375 C 14.566406 -0.210938 13.921875 0.117188 13.046875 0.265625 C 12.804688 0.328125 12.460938 0.378906 12.015625 0.421875 C 11.566406 0.472656 11.144531 0.5 10.75 0.5 Z M 10.75 0.5 "/></g></g></g><g fill="#03421e" fill-opacity="1"><g transform="translate(187.358569, 182.475091)"><g><path d="M 13.546875 0.5 C 11.085938 0.5 8.941406 0.0351562 7.109375 -0.890625 C 5.273438 -1.828125 3.847656 -3.164062 2.828125 -4.90625 C 1.816406 -6.644531 1.3125 -8.695312 1.3125 -11.0625 C 1.3125 -13.46875 1.816406 -15.53125 2.828125 -17.25 C 3.847656 -18.976562 5.273438 -20.304688 7.109375 -21.234375 C 8.941406 -22.171875 11.085938 -22.640625 13.546875 -22.640625 C 16.003906 -22.640625 18.144531 -22.171875 19.96875 -21.234375 C 21.800781 -20.304688 23.21875 -18.976562 24.21875 -17.25 C 25.226562 -15.53125 25.734375 -13.46875 25.734375 -11.0625 C 25.734375 -8.695312 25.226562 -6.644531 24.21875 -4.90625 C 23.21875 -3.164062 21.800781 -1.828125 19.96875 -0.890625 C 18.144531 0.0351562 16.003906 0.5 13.546875 0.5 Z M 13.546875 -5.40625 C 14.742188 -5.40625 15.734375 -5.851562 16.515625 -6.75 C 17.296875 -7.644531 17.6875 -9.082031 17.6875 -11.0625 C 17.6875 -13.070312 17.296875 -14.519531 16.515625 -15.40625 C 15.734375 -16.289062 14.742188 -16.734375 13.546875 -16.734375 C 12.316406 -16.734375 11.3125 -16.289062 10.53125 -15.40625 C 9.75 -14.519531 9.359375 -13.070312 9.359375 -11.0625 C 9.359375 -9.082031 9.75 -7.644531 10.53125 -6.75 C 11.3125 -5.851562 12.316406 -5.40625 13.546875 -5.40625 Z M 13.546875 -5.40625 "/></g></g></g><g fill="#03421e" fill-opacity="1"><g transform="translate(214.441548, 182.475091)"><g><path d="M 6.4375 0.40625 C 3.707031 0.40625 2.34375 -0.941406 2.34375 -3.640625 L 2.34375 -18.546875 C 2.34375 -21.210938 3.644531 -22.546875 6.25 -22.546875 C 7.476562 -22.546875 8.429688 -22.195312 9.109375 -21.5 C 9.785156 -20.8125 10.125 -19.828125 10.125 -18.546875 L 10.125 -18.40625 C 10.632812 -19.695312 11.457031 -20.71875 12.59375 -21.46875 C 13.738281 -22.21875 15.09375 -22.609375 16.65625 -22.640625 C 17.519531 -22.671875 18.171875 -22.453125 18.609375 -21.984375 C 19.046875 -21.515625 19.28125 -20.648438 19.3125 -19.390625 C 19.3125 -18.316406 19.082031 -17.460938 18.625 -16.828125 C 18.175781 -16.203125 17.320312 -15.828125 16.0625 -15.703125 L 15.03125 -15.609375 C 13.4375 -15.460938 12.28125 -15.019531 11.5625 -14.28125 C 10.84375 -13.550781 10.484375 -12.46875 10.484375 -11.03125 L 10.484375 -3.640625 C 10.484375 -0.941406 9.132812 0.40625 6.4375 0.40625 Z M 6.4375 0.40625 "/></g></g></g><g fill="#03421e" fill-opacity="1"><g transform="translate(233.966483, 182.475091)"><g><path d="M 10.03125 0.5 C 8.320312 0.5 6.816406 0.1875 5.515625 -0.4375 C 4.210938 -1.070312 3.191406 -1.9375 2.453125 -3.03125 C 1.710938 -4.132812 1.34375 -5.390625 1.34375 -6.796875 C 1.34375 -8.390625 1.765625 -9.65625 2.609375 -10.59375 C 3.453125 -11.539062 4.800781 -12.21875 6.65625 -12.625 C 8.519531 -13.03125 10.992188 -13.234375 14.078125 -13.234375 L 15.796875 -13.234375 L 15.796875 -13.859375 C 15.796875 -14.941406 15.515625 -15.707031 14.953125 -16.15625 C 14.398438 -16.601562 13.453125 -16.828125 12.109375 -16.828125 C 11.359375 -16.828125 10.539062 -16.742188 9.65625 -16.578125 C 8.769531 -16.410156 7.769531 -16.117188 6.65625 -15.703125 C 5.664062 -15.347656 4.835938 -15.363281 4.171875 -15.75 C 3.515625 -16.132812 3.085938 -16.695312 2.890625 -17.4375 C 2.703125 -18.175781 2.78125 -18.910156 3.125 -19.640625 C 3.46875 -20.378906 4.132812 -20.925781 5.125 -21.28125 C 6.570312 -21.789062 7.898438 -22.144531 9.109375 -22.34375 C 10.328125 -22.539062 11.445312 -22.640625 12.46875 -22.640625 C 16.15625 -22.640625 18.890625 -21.84375 20.671875 -20.25 C 22.460938 -18.65625 23.359375 -16.148438 23.359375 -12.734375 L 23.359375 -3.640625 C 23.359375 -0.941406 22.128906 0.40625 19.671875 0.40625 C 17.328125 0.40625 16.082031 -0.789062 15.9375 -3.1875 C 15.507812 -2.050781 14.785156 -1.148438 13.765625 -0.484375 C 12.742188 0.171875 11.5 0.5 10.03125 0.5 Z M 11.828125 -4.71875 C 12.941406 -4.71875 13.878906 -5.078125 14.640625 -5.796875 C 15.410156 -6.523438 15.796875 -7.472656 15.796875 -8.640625 L 15.796875 -9.453125 L 14.078125 -9.453125 C 12.316406 -9.453125 11.019531 -9.265625 10.1875 -8.890625 C 9.363281 -8.515625 8.953125 -7.921875 8.953125 -7.109375 C 8.953125 -6.421875 9.195312 -5.847656 9.6875 -5.390625 C 10.1875 -4.941406 10.898438 -4.71875 11.828125 -4.71875 Z M 11.828125 -4.71875 "/></g></g></g><g fill="#03421e" fill-opacity="1"><g transform="translate(259.519857, 182.475091)"><g><path d="M 6.703125 0.40625 C 5.503906 0.40625 4.582031 0.078125 3.9375 -0.578125 C 3.289062 -1.242188 2.96875 -2.175781 2.96875 -3.375 L 2.96875 -28.34375 C 2.96875 -29.570312 3.3125 -30.507812 4 -31.15625 C 4.695312 -31.800781 5.675781 -32.125 6.9375 -32.125 C 7.945312 -32.125 8.765625 -31.921875 9.390625 -31.515625 C 10.023438 -31.117188 10.597656 -30.453125 11.109375 -29.515625 L 19.984375 -13.546875 L 28.84375 -29.515625 C 29.382812 -30.453125 29.960938 -31.117188 30.578125 -31.515625 C 31.191406 -31.921875 32.023438 -32.125 33.078125 -32.125 C 34.242188 -32.125 35.15625 -31.800781 35.8125 -31.15625 C 36.476562 -30.507812 36.8125 -29.570312 36.8125 -28.34375 L 36.8125 -3.375 C 36.8125 -2.175781 36.492188 -1.242188 35.859375 -0.578125 C 35.234375 0.078125 34.304688 0.40625 33.078125 0.40625 C 31.878906 0.40625 30.957031 0.078125 30.3125 -0.578125 C 29.664062 -1.242188 29.34375 -2.175781 29.34375 -3.375 L 29.34375 -17.234375 L 23.046875 -6.25 C 22.617188 -5.59375 22.171875 -5.097656 21.703125 -4.765625 C 21.242188 -4.441406 20.625 -4.28125 19.84375 -4.28125 C 19.09375 -4.28125 18.476562 -4.441406 18 -4.765625 C 17.519531 -5.097656 17.082031 -5.59375 16.6875 -6.25 L 10.4375 -17.0625 L 10.4375 -3.375 C 10.4375 -2.175781 10.117188 -1.242188 9.484375 -0.578125 C 8.859375 0.078125 7.929688 0.40625 6.703125 0.40625 Z M 6.703125 0.40625 "/></g></g></g><g fill="#03421e" fill-opacity="1"><g transform="translate(299.289538, 182.475091)"><g><path d="M 14.40625 0.5 C 11.695312 0.5 9.359375 0.0234375 7.390625 -0.921875 C 5.429688 -1.867188 3.925781 -3.210938 2.875 -4.953125 C 1.832031 -6.691406 1.3125 -8.742188 1.3125 -11.109375 C 1.3125 -13.359375 1.8125 -15.351562 2.8125 -17.09375 C 3.8125 -18.832031 5.1875 -20.191406 6.9375 -21.171875 C 8.695312 -22.148438 10.703125 -22.640625 12.953125 -22.640625 C 15.179688 -22.640625 17.109375 -22.171875 18.734375 -21.234375 C 20.367188 -20.304688 21.628906 -18.976562 22.515625 -17.25 C 23.398438 -15.53125 23.84375 -13.515625 23.84375 -11.203125 C 23.84375 -10.035156 23.15625 -9.453125 21.78125 -9.453125 L 8.953125 -9.453125 C 9.222656 -8.015625 9.820312 -6.976562 10.75 -6.34375 C 11.6875 -5.71875 12.976562 -5.40625 14.625 -5.40625 C 15.25 -5.40625 16 -5.476562 16.875 -5.625 C 17.75 -5.769531 18.570312 -6.007812 19.34375 -6.34375 C 20.3125 -6.707031 21.125 -6.710938 21.78125 -6.359375 C 22.4375 -6.015625 22.875 -5.488281 23.09375 -4.78125 C 23.320312 -4.082031 23.296875 -3.363281 23.015625 -2.625 C 22.734375 -1.894531 22.171875 -1.332031 21.328125 -0.9375 C 20.273438 -0.4375 19.15625 -0.0703125 17.96875 0.15625 C 16.789062 0.382812 15.601562 0.5 14.40625 0.5 Z M 13.3125 -17.453125 C 12.113281 -17.453125 11.128906 -17.09375 10.359375 -16.375 C 9.597656 -15.65625 9.113281 -14.609375 8.90625 -13.234375 L 17.28125 -13.234375 C 17.1875 -14.640625 16.800781 -15.691406 16.125 -16.390625 C 15.457031 -17.097656 14.519531 -17.453125 13.3125 -17.453125 Z M 13.3125 -17.453125 "/></g></g></g><g fill="#03421e" fill-opacity="1"><g transform="translate(324.258062, 182.475091)"><g><path d="M 10.984375 0.5 C 9.085938 0.5 7.410156 0.0351562 5.953125 -0.890625 C 4.503906 -1.828125 3.367188 -3.164062 2.546875 -4.90625 C 1.722656 -6.644531 1.3125 -8.695312 1.3125 -11.0625 C 1.3125 -13.46875 1.722656 -15.53125 2.546875 -17.25 C 3.367188 -18.976562 4.503906 -20.304688 5.953125 -21.234375 C 7.410156 -22.171875 9.085938 -22.640625 10.984375 -22.640625 C 12.390625 -22.640625 13.6875 -22.34375 14.875 -21.75 C 16.0625 -21.164062 16.96875 -20.410156 17.59375 -19.484375 L 17.59375 -28.078125 C 17.59375 -30.773438 18.925781 -32.125 21.59375 -32.125 C 22.882812 -32.125 23.875 -31.78125 24.5625 -31.09375 C 25.257812 -30.40625 25.609375 -29.398438 25.609375 -28.078125 L 25.609375 -3.640625 C 25.609375 -0.941406 24.285156 0.40625 21.640625 0.40625 C 19.273438 0.40625 17.972656 -0.71875 17.734375 -2.96875 C 17.128906 -1.914062 16.21875 -1.070312 15 -0.4375 C 13.789062 0.1875 12.453125 0.5 10.984375 0.5 Z M 13.546875 -5.40625 C 14.742188 -5.40625 15.734375 -5.851562 16.515625 -6.75 C 17.296875 -7.644531 17.6875 -9.082031 17.6875 -11.0625 C 17.6875 -13.070312 17.296875 -14.519531 16.515625 -15.40625 C 15.734375 -16.289062 14.742188 -16.734375 13.546875 -16.734375 C 12.316406 -16.734375 11.3125 -16.289062 10.53125 -15.40625 C 9.75 -14.519531 9.359375 -13.070312 9.359375 -11.0625 C 9.359375 -9.082031 9.75 -7.644531 10.53125 -6.75 C 11.3125 -5.851562 12.316406 -5.40625 13.546875 -5.40625 Z M 13.546875 -5.40625 "/></g></g></g><g fill="#000000" fill-opacity="1"><g transform="translate(190.807288, 206.025104)"><g><path d="M 3.640625 -4.140625 C 3.972656 -4.140625 4.265625 -4.179688 4.515625 -4.265625 C 4.765625 -4.359375 4.976562 -4.484375 5.15625 -4.640625 C 5.332031 -4.796875 5.460938 -4.984375 5.546875 -5.203125 C 5.640625 -5.421875 5.6875 -5.664062 5.6875 -5.9375 C 5.6875 -6.476562 5.515625 -6.90625 5.171875 -7.21875 C 4.835938 -7.53125 4.328125 -7.6875 3.640625 -7.6875 L 2.25 -7.6875 L 2.25 -4.140625 Z M 3.640625 -8.59375 C 4.179688 -8.59375 4.648438 -8.53125 5.046875 -8.40625 C 5.453125 -8.28125 5.785156 -8.101562 6.046875 -7.875 C 6.316406 -7.644531 6.515625 -7.363281 6.640625 -7.03125 C 6.773438 -6.707031 6.84375 -6.34375 6.84375 -5.9375 C 6.84375 -5.53125 6.769531 -5.160156 6.625 -4.828125 C 6.488281 -4.503906 6.285156 -4.222656 6.015625 -3.984375 C 5.742188 -3.742188 5.410156 -3.554688 5.015625 -3.421875 C 4.617188 -3.285156 4.160156 -3.21875 3.640625 -3.21875 L 2.25 -3.21875 L 2.25 0 L 1.09375 0 L 1.09375 -8.59375 Z M 3.640625 -8.59375 "/></g></g></g><g fill="#000000" fill-opacity="1"><g transform="translate(198.013197, 206.025104)"><g><path d="M 1.859375 -4.859375 C 2.046875 -5.273438 2.28125 -5.597656 2.5625 -5.828125 C 2.84375 -6.066406 3.1875 -6.1875 3.59375 -6.1875 C 3.71875 -6.1875 3.835938 -6.171875 3.953125 -6.140625 C 4.078125 -6.117188 4.1875 -6.078125 4.28125 -6.015625 L 4.203125 -5.21875 C 4.171875 -5.113281 4.109375 -5.0625 4.015625 -5.0625 C 3.960938 -5.0625 3.878906 -5.070312 3.765625 -5.09375 C 3.660156 -5.125 3.539062 -5.140625 3.40625 -5.140625 C 3.21875 -5.140625 3.046875 -5.109375 2.890625 -5.046875 C 2.742188 -4.992188 2.609375 -4.910156 2.484375 -4.796875 C 2.367188 -4.691406 2.265625 -4.554688 2.171875 -4.390625 C 2.078125 -4.234375 1.992188 -4.050781 1.921875 -3.84375 L 1.921875 0 L 0.84375 0 L 0.84375 -6.078125 L 1.453125 -6.078125 C 1.566406 -6.078125 1.644531 -6.054688 1.6875 -6.015625 C 1.738281 -5.972656 1.769531 -5.894531 1.78125 -5.78125 Z M 1.859375 -4.859375 "/></g></g></g><g fill="#000000" fill-opacity="1"><g transform="translate(202.381143, 206.025104)"><g><path d="M 3.40625 -6.171875 C 3.851562 -6.171875 4.253906 -6.097656 4.609375 -5.953125 C 4.960938 -5.804688 5.265625 -5.59375 5.515625 -5.3125 C 5.765625 -5.039062 5.957031 -4.710938 6.09375 -4.328125 C 6.226562 -3.941406 6.296875 -3.515625 6.296875 -3.046875 C 6.296875 -2.566406 6.226562 -2.132812 6.09375 -1.75 C 5.957031 -1.363281 5.765625 -1.035156 5.515625 -0.765625 C 5.265625 -0.492188 4.960938 -0.285156 4.609375 -0.140625 C 4.253906 0.00390625 3.851562 0.078125 3.40625 0.078125 C 2.957031 0.078125 2.550781 0.00390625 2.1875 -0.140625 C 1.832031 -0.285156 1.53125 -0.492188 1.28125 -0.765625 C 1.03125 -1.035156 0.835938 -1.363281 0.703125 -1.75 C 0.566406 -2.132812 0.5 -2.566406 0.5 -3.046875 C 0.5 -3.515625 0.566406 -3.941406 0.703125 -4.328125 C 0.835938 -4.710938 1.03125 -5.039062 1.28125 -5.3125 C 1.53125 -5.59375 1.832031 -5.804688 2.1875 -5.953125 C 2.550781 -6.097656 2.957031 -6.171875 3.40625 -6.171875 Z M 3.40625 -0.75 C 4.007812 -0.75 4.457031 -0.945312 4.75 -1.34375 C 5.050781 -1.75 5.203125 -2.3125 5.203125 -3.03125 C 5.203125 -3.757812 5.050781 -4.320312 4.75 -4.71875 C 4.457031 -5.125 4.007812 -5.328125 3.40625 -5.328125 C 3.101562 -5.328125 2.835938 -5.273438 2.609375 -5.171875 C 2.390625 -5.066406 2.203125 -4.914062 2.046875 -4.71875 C 1.898438 -4.53125 1.789062 -4.289062 1.71875 -4 C 1.644531 -3.71875 1.609375 -3.394531 1.609375 -3.03125 C 1.609375 -2.3125 1.753906 -1.75 2.046875 -1.34375 C 2.347656 -0.945312 2.800781 -0.75 3.40625 -0.75 Z M 3.40625 -0.75 "/></g></g></g><g fill="#000000" fill-opacity="1"><g transform="translate(209.185056, 206.025104)"><g><path d="M 6.046875 -6.078125 L 3.578125 0 L 2.609375 0 L 0.140625 -6.078125 L 1.015625 -6.078125 C 1.097656 -6.078125 1.164062 -6.054688 1.21875 -6.015625 C 1.28125 -5.972656 1.320312 -5.921875 1.34375 -5.859375 L 2.875 -1.9375 C 2.925781 -1.789062 2.96875 -1.644531 3 -1.5 C 3.039062 -1.363281 3.078125 -1.226562 3.109375 -1.09375 C 3.140625 -1.226562 3.171875 -1.363281 3.203125 -1.5 C 3.242188 -1.644531 3.289062 -1.789062 3.34375 -1.9375 L 4.90625 -5.859375 C 4.925781 -5.921875 4.960938 -5.972656 5.015625 -6.015625 C 5.078125 -6.054688 5.144531 -6.078125 5.21875 -6.078125 Z M 6.046875 -6.078125 "/></g></g></g><g fill="#000000" fill-opacity="1"><g transform="translate(215.376973, 206.025104)"><g><path d="M 1.96875 -6.078125 L 1.96875 0 L 0.90625 0 L 0.90625 -6.078125 Z M 2.203125 -7.984375 C 2.203125 -7.878906 2.179688 -7.78125 2.140625 -7.6875 C 2.097656 -7.601562 2.039062 -7.523438 1.96875 -7.453125 C 1.894531 -7.378906 1.8125 -7.320312 1.71875 -7.28125 C 1.625 -7.25 1.523438 -7.234375 1.421875 -7.234375 C 1.316406 -7.234375 1.21875 -7.25 1.125 -7.28125 C 1.039062 -7.320312 0.960938 -7.378906 0.890625 -7.453125 C 0.828125 -7.523438 0.773438 -7.601562 0.734375 -7.6875 C 0.691406 -7.78125 0.671875 -7.878906 0.671875 -7.984375 C 0.671875 -8.085938 0.691406 -8.1875 0.734375 -8.28125 C 0.773438 -8.375 0.828125 -8.457031 0.890625 -8.53125 C 0.960938 -8.601562 1.039062 -8.65625 1.125 -8.6875 C 1.21875 -8.726562 1.316406 -8.75 1.421875 -8.75 C 1.523438 -8.75 1.625 -8.726562 1.71875 -8.6875 C 1.8125 -8.65625 1.894531 -8.601562 1.96875 -8.53125 C 2.039062 -8.457031 2.097656 -8.375 2.140625 -8.28125 C 2.179688 -8.1875 2.203125 -8.085938 2.203125 -7.984375 Z M 2.203125 -7.984375 "/></g></g></g><g fill="#000000" fill-opacity="1"><g transform="translate(218.256936, 206.025104)"><g><path d="M 4.8125 -4.625 C 4.601562 -4.894531 4.382812 -5.082031 4.15625 -5.1875 C 3.925781 -5.300781 3.664062 -5.359375 3.375 -5.359375 C 2.8125 -5.359375 2.378906 -5.15625 2.078125 -4.75 C 1.773438 -4.34375 1.625 -3.765625 1.625 -3.015625 C 1.625 -2.617188 1.65625 -2.28125 1.71875 -2 C 1.789062 -1.71875 1.890625 -1.484375 2.015625 -1.296875 C 2.148438 -1.117188 2.3125 -0.988281 2.5 -0.90625 C 2.695312 -0.820312 2.914062 -0.78125 3.15625 -0.78125 C 3.507812 -0.78125 3.816406 -0.859375 4.078125 -1.015625 C 4.335938 -1.179688 4.582031 -1.410156 4.8125 -1.703125 Z M 5.875 -8.84375 L 5.875 0 L 5.234375 0 C 5.085938 0 4.992188 -0.0703125 4.953125 -0.21875 L 4.859375 -0.953125 C 4.597656 -0.640625 4.300781 -0.390625 3.96875 -0.203125 C 3.632812 -0.015625 3.25 0.078125 2.8125 0.078125 C 2.46875 0.078125 2.148438 0.015625 1.859375 -0.109375 C 1.578125 -0.242188 1.335938 -0.441406 1.140625 -0.703125 C 0.941406 -0.960938 0.785156 -1.285156 0.671875 -1.671875 C 0.566406 -2.066406 0.515625 -2.515625 0.515625 -3.015625 C 0.515625 -3.460938 0.570312 -3.878906 0.6875 -4.265625 C 0.8125 -4.648438 0.984375 -4.984375 1.203125 -5.265625 C 1.429688 -5.554688 1.707031 -5.78125 2.03125 -5.9375 C 2.363281 -6.101562 2.734375 -6.1875 3.140625 -6.1875 C 3.515625 -6.1875 3.832031 -6.125 4.09375 -6 C 4.363281 -5.875 4.601562 -5.695312 4.8125 -5.46875 L 4.8125 -8.84375 Z M 5.875 -8.84375 "/></g></g></g><g fill="#000000" fill-opacity="1"><g transform="translate(224.976849, 206.025104)"><g><path d="M 4.90625 -3.703125 C 4.90625 -3.953125 4.867188 -4.175781 4.796875 -4.375 C 4.734375 -4.582031 4.632812 -4.757812 4.5 -4.90625 C 4.363281 -5.0625 4.195312 -5.179688 4 -5.265625 C 3.8125 -5.347656 3.597656 -5.390625 3.359375 -5.390625 C 2.847656 -5.390625 2.441406 -5.238281 2.140625 -4.9375 C 1.847656 -4.644531 1.664062 -4.234375 1.59375 -3.703125 Z M 5.78125 -0.859375 C 5.644531 -0.691406 5.484375 -0.550781 5.296875 -0.4375 C 5.117188 -0.320312 4.921875 -0.222656 4.703125 -0.140625 C 4.492188 -0.0664062 4.273438 -0.015625 4.046875 0.015625 C 3.828125 0.0546875 3.609375 0.078125 3.390625 0.078125 C 2.972656 0.078125 2.585938 0.0078125 2.234375 -0.125 C 1.878906 -0.269531 1.570312 -0.476562 1.3125 -0.75 C 1.0625 -1.019531 0.863281 -1.359375 0.71875 -1.765625 C 0.570312 -2.171875 0.5 -2.632812 0.5 -3.15625 C 0.5 -3.582031 0.5625 -3.976562 0.6875 -4.34375 C 0.820312 -4.71875 1.007812 -5.039062 1.25 -5.3125 C 1.5 -5.582031 1.796875 -5.789062 2.140625 -5.9375 C 2.492188 -6.09375 2.894531 -6.171875 3.34375 -6.171875 C 3.695312 -6.171875 4.03125 -6.109375 4.34375 -5.984375 C 4.65625 -5.867188 4.921875 -5.695312 5.140625 -5.46875 C 5.367188 -5.238281 5.546875 -4.953125 5.671875 -4.609375 C 5.804688 -4.273438 5.875 -3.890625 5.875 -3.453125 C 5.875 -3.285156 5.851562 -3.171875 5.8125 -3.109375 C 5.78125 -3.054688 5.710938 -3.03125 5.609375 -3.03125 L 1.546875 -3.03125 C 1.566406 -2.644531 1.625 -2.3125 1.71875 -2.03125 C 1.8125 -1.75 1.941406 -1.507812 2.109375 -1.3125 C 2.273438 -1.125 2.472656 -0.984375 2.703125 -0.890625 C 2.929688 -0.796875 3.191406 -0.75 3.484375 -0.75 C 3.753906 -0.75 3.984375 -0.78125 4.171875 -0.84375 C 4.367188 -0.90625 4.535156 -0.972656 4.671875 -1.046875 C 4.816406 -1.117188 4.9375 -1.1875 5.03125 -1.25 C 5.125 -1.3125 5.207031 -1.34375 5.28125 -1.34375 C 5.363281 -1.34375 5.429688 -1.304688 5.484375 -1.234375 Z M 5.78125 -0.859375 "/></g></g></g><g fill="#000000" fill-opacity="1"><g transform="translate(231.312767, 206.025104)"><g><path d="M 4.8125 -4.625 C 4.601562 -4.894531 4.382812 -5.082031 4.15625 -5.1875 C 3.925781 -5.300781 3.664062 -5.359375 3.375 -5.359375 C 2.8125 -5.359375 2.378906 -5.15625 2.078125 -4.75 C 1.773438 -4.34375 1.625 -3.765625 1.625 -3.015625 C 1.625 -2.617188 1.65625 -2.28125 1.71875 -2 C 1.789062 -1.71875 1.890625 -1.484375 2.015625 -1.296875 C 2.148438 -1.117188 2.3125 -0.988281 2.5 -0.90625 C 2.695312 -0.820312 2.914062 -0.78125 3.15625 -0.78125 C 3.507812 -0.78125 3.816406 -0.859375 4.078125 -1.015625 C 4.335938 -1.179688 4.582031 -1.410156 4.8125 -1.703125 Z M 5.875 -8.84375 L 5.875 0 L 5.234375 0 C 5.085938 0 4.992188 -0.0703125 4.953125 -0.21875 L 4.859375 -0.953125 C 4.597656 -0.640625 4.300781 -0.390625 3.96875 -0.203125 C 3.632812 -0.015625 3.25 0.078125 2.8125 0.078125 C 2.46875 0.078125 2.148438 0.015625 1.859375 -0.109375 C 1.578125 -0.242188 1.335938 -0.441406 1.140625 -0.703125 C 0.941406 -0.960938 0.785156 -1.285156 0.671875 -1.671875 C 0.566406 -2.066406 0.515625 -2.515625 0.515625 -3.015625 C 0.515625 -3.460938 0.570312 -3.878906 0.6875 -4.265625 C 0.8125 -4.648438 0.984375 -4.984375 1.203125 -5.265625 C 1.429688 -5.554688 1.707031 -5.78125 2.03125 -5.9375 C 2.363281 -6.101562 2.734375 -6.1875 3.140625 -6.1875 C 3.515625 -6.1875 3.832031 -6.125 4.09375 -6 C 4.363281 -5.875 4.601562 -5.695312 4.8125 -5.46875 L 4.8125 -8.84375 Z M 5.875 -8.84375 "/></g></g></g><g fill="#000000" fill-opacity="1"><g transform="translate(238.03268, 206.025104)"><g/></g></g><g fill="#000000" fill-opacity="1"><g transform="translate(241.10464, 206.025104)"><g><path d="M 1.921875 -1.46875 C 2.117188 -1.195312 2.332031 -1.007812 2.5625 -0.90625 C 2.800781 -0.800781 3.0625 -0.75 3.34375 -0.75 C 3.90625 -0.75 4.335938 -0.945312 4.640625 -1.34375 C 4.953125 -1.75 5.109375 -2.351562 5.109375 -3.15625 C 5.109375 -3.894531 4.972656 -4.441406 4.703125 -4.796875 C 4.429688 -5.148438 4.046875 -5.328125 3.546875 -5.328125 C 3.203125 -5.328125 2.898438 -5.242188 2.640625 -5.078125 C 2.378906 -4.921875 2.140625 -4.695312 1.921875 -4.40625 Z M 1.921875 -5.203125 C 2.171875 -5.492188 2.457031 -5.726562 2.78125 -5.90625 C 3.101562 -6.082031 3.476562 -6.171875 3.90625 -6.171875 C 4.257812 -6.171875 4.578125 -6.101562 4.859375 -5.96875 C 5.148438 -5.832031 5.394531 -5.632812 5.59375 -5.375 C 5.789062 -5.113281 5.941406 -4.800781 6.046875 -4.4375 C 6.148438 -4.070312 6.203125 -3.660156 6.203125 -3.203125 C 6.203125 -2.703125 6.140625 -2.25 6.015625 -1.84375 C 5.898438 -1.445312 5.726562 -1.101562 5.5 -0.8125 C 5.28125 -0.53125 5.007812 -0.3125 4.6875 -0.15625 C 4.363281 0 4 0.078125 3.59375 0.078125 C 3.195312 0.078125 2.859375 0.00390625 2.578125 -0.140625 C 2.304688 -0.285156 2.066406 -0.5 1.859375 -0.78125 L 1.8125 -0.234375 C 1.78125 -0.078125 1.6875 0 1.53125 0 L 0.84375 0 L 0.84375 -8.84375 L 1.921875 -8.84375 Z M 1.921875 -5.203125 "/></g></g></g><g fill="#000000" fill-opacity="1"><g transform="translate(247.824553, 206.025104)"><g><path d="M 6.09375 -6.078125 L 2.703125 1.796875 C 2.660156 1.867188 2.613281 1.929688 2.5625 1.984375 C 2.507812 2.035156 2.425781 2.0625 2.3125 2.0625 L 1.53125 2.0625 L 2.640625 -0.359375 L 0.125 -6.078125 L 1.046875 -6.078125 C 1.140625 -6.078125 1.210938 -6.050781 1.265625 -6 C 1.316406 -5.957031 1.351562 -5.910156 1.375 -5.859375 L 3 -2.03125 C 3.070312 -1.863281 3.128906 -1.6875 3.171875 -1.5 C 3.222656 -1.6875 3.28125 -1.863281 3.34375 -2.03125 L 4.921875 -5.859375 C 4.953125 -5.921875 4.992188 -5.972656 5.046875 -6.015625 C 5.109375 -6.054688 5.175781 -6.078125 5.25 -6.078125 Z M 6.09375 -6.078125 "/></g></g></g><g fill="#000000" fill-opacity="1"><g transform="translate(254.010473, 206.025104)"><g/></g></g><g fill="#000000" fill-opacity="1"><g transform="translate(257.082433, 206.025104)"><g><path d="M 8.0625 -8.59375 L 8.0625 0 L 7.484375 0 C 7.390625 0 7.3125 -0.015625 7.25 -0.046875 C 7.1875 -0.078125 7.125 -0.128906 7.0625 -0.203125 L 2.09375 -6.6875 C 2.101562 -6.59375 2.109375 -6.492188 2.109375 -6.390625 C 2.117188 -6.296875 2.125 -6.207031 2.125 -6.125 L 2.125 0 L 1.09375 0 L 1.09375 -8.59375 L 1.703125 -8.59375 C 1.753906 -8.59375 1.796875 -8.585938 1.828125 -8.578125 C 1.867188 -8.578125 1.898438 -8.566406 1.921875 -8.546875 C 1.953125 -8.535156 1.976562 -8.515625 2 -8.484375 C 2.03125 -8.460938 2.0625 -8.4375 2.09375 -8.40625 L 7.078125 -1.921875 C 7.066406 -2.023438 7.054688 -2.125 7.046875 -2.21875 C 7.046875 -2.320312 7.046875 -2.421875 7.046875 -2.515625 L 7.046875 -8.59375 Z M 8.0625 -8.59375 "/></g></g></g><g fill="#000000" fill-opacity="1"><g transform="translate(266.24431, 206.025104)"><g><path d="M 4.140625 -2.734375 C 3.648438 -2.722656 3.226562 -2.6875 2.875 -2.625 C 2.53125 -2.5625 2.25 -2.476562 2.03125 -2.375 C 1.8125 -2.269531 1.65625 -2.148438 1.5625 -2.015625 C 1.46875 -1.878906 1.421875 -1.726562 1.421875 -1.5625 C 1.421875 -1.40625 1.445312 -1.269531 1.5 -1.15625 C 1.550781 -1.039062 1.617188 -0.941406 1.703125 -0.859375 C 1.796875 -0.785156 1.898438 -0.734375 2.015625 -0.703125 C 2.140625 -0.671875 2.273438 -0.65625 2.421875 -0.65625 C 2.609375 -0.65625 2.78125 -0.671875 2.9375 -0.703125 C 3.09375 -0.742188 3.238281 -0.800781 3.375 -0.875 C 3.507812 -0.945312 3.640625 -1.03125 3.765625 -1.125 C 3.890625 -1.226562 4.015625 -1.34375 4.140625 -1.46875 Z M 0.6875 -5.21875 C 1.019531 -5.539062 1.378906 -5.78125 1.765625 -5.9375 C 2.160156 -6.101562 2.59375 -6.1875 3.0625 -6.1875 C 3.40625 -6.1875 3.707031 -6.128906 3.96875 -6.015625 C 4.238281 -5.898438 4.460938 -5.742188 4.640625 -5.546875 C 4.816406 -5.347656 4.953125 -5.101562 5.046875 -4.8125 C 5.140625 -4.53125 5.1875 -4.222656 5.1875 -3.890625 L 5.1875 0 L 4.703125 0 C 4.597656 0 4.519531 -0.015625 4.46875 -0.046875 C 4.414062 -0.0859375 4.375 -0.15625 4.34375 -0.25 L 4.21875 -0.828125 C 4.0625 -0.679688 3.90625 -0.550781 3.75 -0.4375 C 3.59375 -0.320312 3.429688 -0.222656 3.265625 -0.140625 C 3.097656 -0.0664062 2.921875 -0.0078125 2.734375 0.03125 C 2.546875 0.0703125 2.332031 0.09375 2.09375 0.09375 C 1.863281 0.09375 1.644531 0.0625 1.4375 0 C 1.226562 -0.0703125 1.046875 -0.171875 0.890625 -0.296875 C 0.734375 -0.429688 0.609375 -0.597656 0.515625 -0.796875 C 0.429688 -1.003906 0.390625 -1.242188 0.390625 -1.515625 C 0.390625 -1.753906 0.453125 -1.984375 0.578125 -2.203125 C 0.710938 -2.429688 0.925781 -2.628906 1.21875 -2.796875 C 1.519531 -2.972656 1.910156 -3.113281 2.390625 -3.21875 C 2.867188 -3.332031 3.453125 -3.394531 4.140625 -3.40625 L 4.140625 -3.890625 C 4.140625 -4.359375 4.035156 -4.710938 3.828125 -4.953125 C 3.628906 -5.203125 3.332031 -5.328125 2.9375 -5.328125 C 2.675781 -5.328125 2.457031 -5.289062 2.28125 -5.21875 C 2.101562 -5.15625 1.945312 -5.082031 1.8125 -5 C 1.6875 -4.914062 1.578125 -4.84375 1.484375 -4.78125 C 1.390625 -4.71875 1.296875 -4.6875 1.203125 -4.6875 C 1.128906 -4.6875 1.066406 -4.703125 1.015625 -4.734375 C 0.960938 -4.773438 0.914062 -4.820312 0.875 -4.875 Z M 0.6875 -5.21875 "/></g></g></g><g fill="#000000" fill-opacity="1"><g transform="translate(272.208237, 206.025104)"><g><path d="M 2.71875 0.09375 C 2.226562 0.09375 1.851562 -0.0351562 1.59375 -0.296875 C 1.34375 -0.566406 1.21875 -0.957031 1.21875 -1.46875 L 1.21875 -5.1875 L 0.484375 -5.1875 C 0.421875 -5.1875 0.367188 -5.203125 0.328125 -5.234375 C 0.285156 -5.273438 0.265625 -5.335938 0.265625 -5.421875 L 0.265625 -5.84375 L 1.25 -5.96875 L 1.5 -7.84375 C 1.507812 -7.90625 1.535156 -7.953125 1.578125 -7.984375 C 1.617188 -8.023438 1.675781 -8.046875 1.75 -8.046875 L 2.28125 -8.046875 L 2.28125 -5.953125 L 4.046875 -5.953125 L 4.046875 -5.1875 L 2.28125 -5.1875 L 2.28125 -1.53125 C 2.28125 -1.28125 2.34375 -1.09375 2.46875 -0.96875 C 2.59375 -0.84375 2.753906 -0.78125 2.953125 -0.78125 C 3.066406 -0.78125 3.160156 -0.796875 3.234375 -0.828125 C 3.316406 -0.859375 3.390625 -0.890625 3.453125 -0.921875 C 3.515625 -0.960938 3.566406 -0.992188 3.609375 -1.015625 C 3.648438 -1.046875 3.6875 -1.0625 3.71875 -1.0625 C 3.769531 -1.0625 3.820312 -1.03125 3.875 -0.96875 L 4.1875 -0.453125 C 4 -0.285156 3.773438 -0.148438 3.515625 -0.046875 C 3.253906 0.046875 2.988281 0.09375 2.71875 0.09375 Z M 2.71875 0.09375 "/></g></g></g><g fill="#000000" fill-opacity="1"><g transform="translate(276.510186, 206.025104)"><g><path d="M 5.84375 -6.078125 L 5.84375 0 L 5.203125 0 C 5.054688 0 4.960938 -0.0703125 4.921875 -0.21875 L 4.84375 -0.875 C 4.570312 -0.582031 4.269531 -0.347656 3.9375 -0.171875 C 3.613281 0.00390625 3.238281 0.09375 2.8125 0.09375 C 2.488281 0.09375 2.195312 0.0390625 1.9375 -0.0625 C 1.6875 -0.175781 1.472656 -0.332031 1.296875 -0.53125 C 1.128906 -0.726562 1 -0.96875 0.90625 -1.25 C 0.820312 -1.539062 0.78125 -1.859375 0.78125 -2.203125 L 0.78125 -6.078125 L 1.859375 -6.078125 L 1.859375 -2.203125 C 1.859375 -1.742188 1.960938 -1.382812 2.171875 -1.125 C 2.378906 -0.875 2.695312 -0.75 3.125 -0.75 C 3.445312 -0.75 3.742188 -0.820312 4.015625 -0.96875 C 4.285156 -1.125 4.539062 -1.335938 4.78125 -1.609375 L 4.78125 -6.078125 Z M 5.84375 -6.078125 "/></g></g></g><g fill="#000000" fill-opacity="1"><g transform="translate(283.200104, 206.025104)"><g><path d="M 1.859375 -4.859375 C 2.046875 -5.273438 2.28125 -5.597656 2.5625 -5.828125 C 2.84375 -6.066406 3.1875 -6.1875 3.59375 -6.1875 C 3.71875 -6.1875 3.835938 -6.171875 3.953125 -6.140625 C 4.078125 -6.117188 4.1875 -6.078125 4.28125 -6.015625 L 4.203125 -5.21875 C 4.171875 -5.113281 4.109375 -5.0625 4.015625 -5.0625 C 3.960938 -5.0625 3.878906 -5.070312 3.765625 -5.09375 C 3.660156 -5.125 3.539062 -5.140625 3.40625 -5.140625 C 3.21875 -5.140625 3.046875 -5.109375 2.890625 -5.046875 C 2.742188 -4.992188 2.609375 -4.910156 2.484375 -4.796875 C 2.367188 -4.691406 2.265625 -4.554688 2.171875 -4.390625 C 2.078125 -4.234375 1.992188 -4.050781 1.921875 -3.84375 L 1.921875 0 L 0.84375 0 L 0.84375 -6.078125 L 1.453125 -6.078125 C 1.566406 -6.078125 1.644531 -6.054688 1.6875 -6.015625 C 1.738281 -5.972656 1.769531 -5.894531 1.78125 -5.78125 Z M 1.859375 -4.859375 "/></g></g></g><g fill="#000000" fill-opacity="1"><g transform="translate(287.56805, 206.025104)"><g><path d="M 4.90625 -3.703125 C 4.90625 -3.953125 4.867188 -4.175781 4.796875 -4.375 C 4.734375 -4.582031 4.632812 -4.757812 4.5 -4.90625 C 4.363281 -5.0625 4.195312 -5.179688 4 -5.265625 C 3.8125 -5.347656 3.597656 -5.390625 3.359375 -5.390625 C 2.847656 -5.390625 2.441406 -5.238281 2.140625 -4.9375 C 1.847656 -4.644531 1.664062 -4.234375 1.59375 -3.703125 Z M 5.78125 -0.859375 C 5.644531 -0.691406 5.484375 -0.550781 5.296875 -0.4375 C 5.117188 -0.320312 4.921875 -0.222656 4.703125 -0.140625 C 4.492188 -0.0664062 4.273438 -0.015625 4.046875 0.015625 C 3.828125 0.0546875 3.609375 0.078125 3.390625 0.078125 C 2.972656 0.078125 2.585938 0.0078125 2.234375 -0.125 C 1.878906 -0.269531 1.570312 -0.476562 1.3125 -0.75 C 1.0625 -1.019531 0.863281 -1.359375 0.71875 -1.765625 C 0.570312 -2.171875 0.5 -2.632812 0.5 -3.15625 C 0.5 -3.582031 0.5625 -3.976562 0.6875 -4.34375 C 0.820312 -4.71875 1.007812 -5.039062 1.25 -5.3125 C 1.5 -5.582031 1.796875 -5.789062 2.140625 -5.9375 C 2.492188 -6.09375 2.894531 -6.171875 3.34375 -6.171875 C 3.695312 -6.171875 4.03125 -6.109375 4.34375 -5.984375 C 4.65625 -5.867188 4.921875 -5.695312 5.140625 -5.46875 C 5.367188 -5.238281 5.546875 -4.953125 5.671875 -4.609375 C 5.804688 -4.273438 5.875 -3.890625 5.875 -3.453125 C 5.875 -3.285156 5.851562 -3.171875 5.8125 -3.109375 C 5.78125 -3.054688 5.710938 -3.03125 5.609375 -3.03125 L 1.546875 -3.03125 C 1.566406 -2.644531 1.625 -2.3125 1.71875 -2.03125 C 1.8125 -1.75 1.941406 -1.507812 2.109375 -1.3125 C 2.273438 -1.125 2.472656 -0.984375 2.703125 -0.890625 C 2.929688 -0.796875 3.191406 -0.75 3.484375 -0.75 C 3.753906 -0.75 3.984375 -0.78125 4.171875 -0.84375 C 4.367188 -0.90625 4.535156 -0.972656 4.671875 -1.046875 C 4.816406 -1.117188 4.9375 -1.1875 5.03125 -1.25 C 5.125 -1.3125 5.207031 -1.34375 5.28125 -1.34375 C 5.363281 -1.34375 5.429688 -1.304688 5.484375 -1.234375 Z M 5.78125 -0.859375 "/></g></g></g></svg>