<!DOCTYPE svg PUBLIC "-//W3C//DTD SVG 1.1//EN" "http://www.w3.org/Graphics/SVG/1.1/DTD/svg11.dtd">
<!-- Uploaded to: SVG Repo, www.svgrepo.com, Transformed by: SVG Repo Mixer Tools -->
<svg height="800px" width="800px" version="1.1" id="_x32_" xmlns="http://www.w3.org/2000/svg" xmlns:xlink="http://www.w3.org/1999/xlink" viewBox="0 0 512 512" xml:space="preserve" fill="#008a30" stroke="#008a30">
<g id="SVGRepo_bgCarrier" stroke-width="0"/>
<g id="SVGRepo_tracerCarrier" stroke-linecap="round" stroke-linejoin="round"/>
<g id="SVGRepo_iconCarrier"> <style type="text/css"> .st0{fill:#008a30;} </style> <g> <path class="st0" d="M256,0C114.615,0,0,114.612,0,256s114.615,256,256,256c141.384,0,256-114.612,256-256S397.384,0,256,0z M281.479,412.736c-6.925,6.917-15.409,10.364-25.479,10.364c-10.066,0-18.562-3.545-25.476-10.661 c-6.913-7.306-10.364-15.703-10.364-25.174c0-9.875,3.45-18.264,10.364-25.181c6.913-6.902,15.409-10.372,25.476-10.372 c10.265,0,18.769,3.356,25.479,10.074c6.905,6.918,10.364,15.405,10.364,25.479C291.843,397.331,288.384,405.835,281.479,412.736z M290.657,137.463L267.549,315c-0.789,7.314-4.636,10.976-11.549,10.976c-2.963,0-5.537-1.191-7.698-3.554 c-2.178-2.38-3.463-4.851-3.856-7.421l-23.107-177.537c-0.397-3.546-0.587-7.984-0.587-13.323c0-8.694,2.963-16.685,8.884-24.008 c5.926-7.496,14.703-11.24,26.364-11.24c11.256,0,19.946,3.654,26.07,10.959c6.125,7.314,9.178,15.397,9.178,24.289 C291.248,129.868,291.05,134.322,290.657,137.463z"/> </g> </g>
</svg>